<svg width="834.133179" height="35.075684" viewBox="0 0 834.133 35.0757" fill="none" xmlns="http://www.w3.org/2000/svg" xmlns:xlink="http://www.w3.org/1999/xlink">
	<desc>
			Created with Pixso.
	</desc>
	<defs>
		<clipPath id="clip19_527">
			<rect id="land-roverin-logo" width="66.535370" height="35.075710" fill="white" fill-opacity="0"/>
		</clipPath>
		<clipPath id="clip19_533">
			<rect id="the-avengers 1" width="81.265968" height="28.217352" transform="translate(205.535339 3.429199)" fill="white" fill-opacity="0"/>
		</clipPath>
		<clipPath id="clip19_535">
			<rect id="etsy" width="65.271431" height="30.964769" transform="translate(425.801331 2.055420)" fill="white" fill-opacity="0"/>
		</clipPath>
		<clipPath id="clip19_537">
			<rect id="linkedin-icon-1" width="32.563553" height="31.414251" transform="translate(630.072693 1.830688)" fill="white" fill-opacity="0"/>
		</clipPath>
		<clipPath id="clip19_539">
			<rect id="tiktok-logo" width="32.496868" height="32.496868" transform="translate(801.636292 1.289429)" fill="white" fill-opacity="0"/>
		</clipPath>
	</defs>
	<g opacity="0.400000">
		<rect id="land-roverin-logo" width="66.535370" height="35.075710" fill="#FFFFFF" fill-opacity="1.000000"/>
		<g clip-path="url(#clip19_527)">
			<path id="Vector" d="M66.53 17.53C66.53 27.22 51.63 35.07 33.26 35.07C14.89 35.07 0 27.22 0 17.53C0 7.85 14.89 0 33.26 0C51.63 0 66.53 7.85 66.53 17.53Z" fill="#C1C9CF" fill-opacity="1.000000" fill-rule="evenodd"/>
			<path id="Vector" d="M65.15 17.52C65.15 26.41 50.87 33.62 33.25 33.62C15.63 33.62 1.35 26.41 1.35 17.52C1.35 8.63 15.63 1.42 33.25 1.42C50.87 1.42 65.15 8.63 65.15 17.52ZM33.25 2.68C16.32 2.68 2.6 9.33 2.6 17.52C2.6 25.71 16.32 32.36 33.25 32.36C50.18 32.36 63.9 25.71 63.9 17.52C63.9 9.33 50.18 2.68 33.25 2.68Z" fill="#414B47" fill-opacity="1.000000" fill-rule="evenodd"/>
			<path id="Vector" d="M63.11 17.52C63.11 25.27 49.74 31.56 33.25 31.56C16.76 31.56 3.39 25.27 3.39 17.52C3.39 9.77 16.76 3.48 33.25 3.48C49.74 3.48 63.11 9.77 63.11 17.52ZM52.39 10.95L47.27 10.95L46.64 12.74L49.96 12.74L46.18 14.06L45.93 14.78L51.74 12.87L52.39 10.95ZM19.74 14.09L17.65 14.09C17.65 14.09 19.59 8.91 19.74 8.52C20.02 7.83 20.18 7.88 20.18 7.88L17.3 7.88C17.66 8.05 17.34 8.72 17.34 8.72C17.34 8.72 15.03 15.18 14.87 15.51C14.71 15.83 14.59 15.87 14.59 15.87L19.58 15.87L20.28 13.96C20.22 14.14 19.74 14.09 19.74 14.09ZM28.49 15.86L30.84 15.86C30.84 15.86 30.68 15.62 30.78 15.36C30.92 15 32.17 11.59 32.17 11.59L32.71 15.86L34.84 15.86L37.63 8.25C37.63 8.25 37.74 7.9 37.9 7.9L35.64 7.89C35.64 7.89 35.7 8.15 35.62 8.36C35.54 8.56 34.25 12.01 34.25 12.01L33.75 7.89L31.32 7.89C31.32 7.89 31.45 8.09 31.37 8.31C31.3 8.49 28.79 15.42 28.79 15.42C28.79 15.42 28.63 15.86 28.49 15.86ZM39.23 7.89C39.23 7.89 39.44 8.22 39.17 8.96C38.91 9.71 36.86 15.26 36.86 15.26C36.86 15.26 36.7 15.78 36.48 15.89L39.7 15.88C39.7 15.88 43.59 16.03 44.8 11.91C44.8 11.91 46.32 7.85 41.91 7.89L39.23 7.89ZM39.58 14.04C39.58 14.04 39.59 14.04 39.95 14.04C40.49 14.04 41.51 13.92 42.19 12.25C43.3 9.52 41.74 9.61 41.74 9.61L41.14 9.61L39.58 14.04ZM11 22.31L16.12 22.31L16.74 20.52L13.43 20.52L17.21 19.2L17.46 18.47L11.64 20.39L11 22.31ZM19.97 25.62C19.89 25.62 19.89 25.35 19.89 25.35L20.84 22.84C20.84 22.84 22.01 25.16 22.09 25.32C22.17 25.48 22.13 25.61 22.13 25.61L24.94 25.61C24.67 25.61 24.39 25.1 24.39 25.1L22.99 22.58C24.95 22.58 25.57 20.63 25.57 20.63C26.54 17.54 23.29 17.62 23.29 17.62L19.97 17.62C20.21 17.89 20.03 18.45 20.03 18.45C20.03 18.45 17.97 24.38 17.81 24.84C17.64 25.3 17.35 25.62 17.35 25.62L19.97 25.62ZM21.96 19.46L21.42 21.07L21.93 21.07C21.93 21.07 22.92 21.15 23.29 20.36C23.29 20.36 23.71 19.45 22.52 19.45C22.26 19.45 21.96 19.46 21.96 19.46ZM49.02 25.64C48.82 25.65 48.96 25.15 48.96 25.15L49.8 22.87C49.8 22.87 50.93 25.19 51.01 25.35C51.09 25.51 51.05 25.64 51.05 25.64L53.96 25.64C53.69 25.64 53.39 25.13 53.39 25.13L52 22.61C53.95 22.61 54.54 20.73 54.54 20.73C55.57 17.49 52.3 17.65 52.3 17.65L49 17.65C49.24 17.92 49.06 18.48 49.06 18.48C49.06 18.48 46.91 24.43 46.75 24.89C46.59 25.35 46.28 25.64 46.28 25.64L49.02 25.64ZM50.93 21.09C50.93 21.09 51.92 21.17 52.22 20.4C52.57 19.48 51.68 19.51 51.68 19.51L50.96 19.51L50.42 21.09L50.93 21.09ZM29.05 25.81C31.94 25.81 33.67 22.96 33.67 20.91C33.67 18.76 32.79 17.41 30.78 17.41C28.22 17.41 26.55 19.37 26.12 21.8C25.72 24.03 26.97 25.81 29.05 25.81ZM29.23 23.92C29.95 24.06 30.75 23.53 31.16 21.86C31.79 19.34 30.63 19.32 30.42 19.29C29.78 19.21 28.92 19.95 28.57 21.5C28.41 22.21 28.24 23.74 29.23 23.92ZM34.35 17.65C34.35 17.65 34.55 17.76 34.55 18.27L34.55 25.19C34.55 25.19 34.53 25.56 34.38 25.64L36.54 25.64C36.54 25.64 36.54 25.48 36.75 25.21C36.97 24.94 41.44 18.92 41.44 18.92C41.44 18.92 42.46 17.65 42.72 17.65L39.64 17.65C39.64 17.65 39.88 17.81 39.7 18.11C39.51 18.4 36.77 22.52 36.77 22.52L36.8 18.37C36.8 18.37 36.8 17.7 37.07 17.65L34.35 17.65ZM47.37 19.54L48.07 17.65L42.85 17.65C42.85 17.65 43.03 17.81 42.79 18.49C42.55 19.16 40.44 24.89 40.44 24.89C40.44 24.89 40.06 25.65 39.95 25.65L45.34 25.65L45.98 23.74C45.98 23.74 45.9 23.84 45.39 23.84L43.11 23.84L43.6 22.55L45.36 22.55C45.36 22.55 45.74 22.52 45.82 22.63L46.54 20.59C46.54 20.59 46.49 20.77 46.01 20.77L44.29 20.77L44.8 19.35L46.97 19.35C46.97 19.35 47.26 19.31 47.37 19.54ZM20.15 15.87L22.73 15.87C22.73 15.87 22.72 15.67 22.79 15.54C22.91 15.31 23.23 14.75 23.23 14.75L25.82 14.75L25.83 15.45C25.83 15.45 25.84 15.69 25.65 15.88L28.22 15.88C28.22 15.88 28.03 15.77 27.99 15.45L27.67 8.43C27.67 8.43 27.66 7.98 27.87 7.88L25.32 7.88C25.32 7.88 25.5 8.1 25.16 8.61C24.82 9.11 20.46 15.61 20.46 15.61C20.46 15.61 20.37 15.77 20.15 15.87ZM25.77 10.6L24.34 12.94L25.79 12.94L25.77 10.6Z" fill="#414B47" fill-opacity="1.000000" fill-rule="evenodd"/>
		</g>
	</g>
	<g opacity="0.400000">
		<rect id="the-avengers 1" width="81.265968" height="28.217352" transform="translate(205.535339 3.429199)" fill="#FFFFFF" fill-opacity="1.000000"/>
		<g clip-path="url(#clip19_533)">
			<path id="Vector" d="M232.19 10.14L229.08 17.69L230.39 10.14L226.98 10.14L224.82 26.18L228.49 26.18L235.69 10.14L232.19 10.14ZM237.16 19.41L240.11 19.41L240.97 16.56L238.02 16.56L239.08 13.03L242.1 13.03L242.98 10.14L236.53 10.14L231.7 26.18L238.04 26.18L239.17 23.13L236.03 23.13L237.16 19.41ZM217.89 29.46C216.12 29.46 214.46 29.02 213 28.25L212.13 30.01C213.85 30.91 215.81 31.42 217.89 31.42C221.83 31.42 225.34 29.6 227.6 26.76L224.91 26.76C223.07 28.44 220.6 29.46 217.89 29.46ZM220.08 23.38L220.08 25.04L224.25 21.91L220.21 18.2L220.21 19.81L215.91 19.81L220.21 9.81L220.21 17.18L223.7 20.4L223.79 3.42L219.97 3.42L206.04 31.55L210.66 31.64L214.4 23.38L220.08 23.38ZM208.88 24.29C208.01 22.79 207.51 21.05 207.51 19.2C207.51 14.04 211.36 9.77 216.38 9.04L217.4 6.99C210.8 7.25 205.54 12.61 205.54 19.2C205.54 21.84 206.38 24.29 207.83 26.29L208.88 24.29ZM223.69 26.18L223.69 23.15L220.08 26.18L223.69 26.18ZM275.13 18.57C275.96 18.57 276.44 18.08 276.57 17.62L278.22 12.17C278.54 11.11 278.06 10.14 276.6 10.14L270.39 10.14L265.56 26.18L268.97 26.18L271.02 19.34L272.15 19.34C272.56 19.34 272.6 19.63 272.51 19.89L270.62 26.18L274.02 26.18L275.78 20.33C276.14 19.19 275.65 18.66 275.13 18.57ZM274.59 13.39L273.68 16.36C273.53 16.85 273.23 16.98 272.9 16.98L271.72 16.98L273.01 12.72L274.07 12.72C274.59 12.72 274.72 12.97 274.59 13.39ZM248.94 10.14L247.06 16.34L246.95 10.14L244.04 10.14L239.21 26.18L242.41 26.18L244.38 19.78L244.67 26.18L247.4 26.18L252.23 10.14L248.94 10.14ZM282.93 13.03L285.91 13.03L286.79 10.14L281.54 10.14C280.72 10.14 279.91 10.36 279.53 11.49L277.66 17.71C277.32 18.88 277.66 19.65 279.08 19.65L280.88 19.65C281.08 19.65 281.08 19.74 281.04 19.87L280.25 22.58C280.11 22.98 280.02 23.13 279.39 23.13L276.55 23.13L275.62 26.18L281.2 26.18C281.9 26.18 282.64 25.85 282.82 25.21L284.69 18.99C285.17 17.42 284.4 16.76 283.18 16.76L281.35 16.76L282.32 13.5C282.44 13.14 282.69 13.03 282.93 13.03ZM255.93 16.56L255.07 19.41L255.77 19.41L254.53 23.51L253.38 23.51C252.93 23.51 252.73 23.33 252.86 22.87L255.68 13.52C255.79 13.12 255.97 13.03 256.34 13.03L259.65 13.03L260.53 10.14L255.09 10.14C254.01 10.14 253.27 10.45 252.91 11.64L249.43 23.2C248.8 25.32 250.09 26.18 251.62 26.18L253.72 26.18L253.36 27.44L257.15 25.56L259.85 16.56L255.93 16.56L255.93 16.56ZM263.51 19.41L266.47 19.41L267.32 16.56L264.37 16.56L265.43 13.03L268.45 13.03L269.33 10.14L262.88 10.14L258.05 26.18L264.39 26.18L265.52 23.13L262.38 23.13L263.51 19.41Z" fill="#000000" fill-opacity="1.000000" fill-rule="nonzero"/>
		</g>
	</g>
	<rect id="etsy" width="65.271431" height="30.964769" transform="translate(425.801331 2.055420)" fill="#FFFFFF" fill-opacity="1.000000"/>
	<g clip-path="url(#clip19_535)">
		<path id="Vector" d="M432.8 13.23L432.8 4.49C432.8 4.16 432.83 3.97 433.38 3.97L440.8 3.97C442.1 3.97 442.81 5.07 443.33 7.14L443.75 8.8L445.01 8.8C445.24 4.1 445.43 2.06 445.43 2.06C445.43 2.06 442.26 2.41 440.38 2.41L430.88 2.41L425.8 2.25L425.8 3.61L427.51 3.93C428.71 4.16 429 4.42 429.1 5.52C429.1 5.52 429.2 8.76 429.2 14.11C429.2 19.46 429.1 22.67 429.1 22.67C429.1 23.64 428.71 23.99 427.51 24.22L425.8 24.55L425.8 25.91L430.88 25.74L439.37 25.74C441.29 25.74 445.73 25.91 445.73 25.91C445.82 24.74 446.47 19.46 446.57 18.87L445.37 18.87L444.11 21.76C443.1 24.03 441.64 24.19 440.02 24.19L435.19 24.19C433.57 24.19 432.8 23.54 432.8 22.15L432.8 14.76C432.8 14.76 436.33 14.76 437.56 14.86C438.47 14.92 439.02 15.18 439.31 16.44L439.7 18.13L441.09 18.13L440.99 13.88L441.19 9.61L439.8 9.61L439.34 11.49C439.05 12.72 438.86 12.94 437.59 13.07C436.17 13.24 432.8 13.2 432.8 13.2L432.8 13.24L432.8 13.24L432.8 13.23ZM452.01 5.39C451.56 7.4 451.1 8.96 449.52 9.99C448.54 10.64 447.57 10.87 447.18 10.9L447.18 12.13L450.07 12.13L450.07 22.08C450.07 24.87 451.92 26.23 454.38 26.23C456.29 26.23 458.27 25.42 458.95 23.73L458.27 22.86C457.94 23.41 456.91 24.22 455.61 24.22C454.18 24.22 453.41 23.25 453.41 20.79L453.41 12L458.2 12.36L458.46 10.16L453.41 10.35L453.41 5.43L452.01 5.39ZM462.25 20.7L461.02 20.73C461.09 21.44 461.12 22.35 461.12 23.19C461.12 24.07 461.09 24.88 461.02 25.26C461.02 25.26 463.48 26.17 465.98 26.17C469.35 26.17 472.04 24.55 472.04 21.37C472.04 15.93 463.87 16.74 463.87 13.08C463.87 11.56 465.23 10.97 466.72 10.97C467.89 10.97 468.86 11.39 469.06 12.01L469.87 14.44L471.07 14.38C471.17 13.08 471.23 11.59 471.42 10.39C470.39 9.94 468.22 9.68 466.86 9.68C463.68 9.68 461.12 11.07 461.12 14.18C461.12 19.59 469.09 18.49 469.09 22.48C469.09 23.9 468.22 24.91 466.24 24.91C464.43 24.91 463.52 23.97 463.16 23.03L462.25 20.7ZM481.78 24.44C479.91 29.68 477.61 31.04 475.54 31.04C474.67 31.04 474.25 30.65 474.12 30.03L473.63 27.51L472.27 27.58C472.02 29.06 471.76 30.71 471.4 32.07C472.21 32.69 473.57 33.01 474.64 33.01C476.87 33.01 480.26 32.72 483.37 25.34L488.58 13.05C489 12.05 489.16 11.95 490.39 11.47L491.07 11.21L491.07 10.08L487.99 10.24L484.7 10.08L484.7 11.21L485.54 11.47C486.38 11.73 486.77 12.05 486.77 12.63C486.77 12.92 486.67 13.21 486.51 13.67C486.02 14.9 483.01 22.21 482.2 23.76L483.01 23.47C481.59 19.94 479.42 14.05 479.1 13.05C479.03 12.86 479 12.7 479 12.53C479 12.02 479.36 11.6 480.13 11.44L481.2 11.21L481.2 10.08L476.77 10.24L473.24 10.08L473.24 11.21L473.83 11.4C474.63 11.66 474.83 11.89 475.31 13.02C478 19.17 479.26 22.53 480.97 26.93L481.78 24.44Z" fill="#999999" fill-opacity="1.000000" fill-rule="nonzero"/>
	</g>
	<g opacity="0.400000">
		<rect id="linkedin-icon-1" width="32.563553" height="31.414251" transform="translate(630.072693 1.830688)" fill="#FFFFFF" fill-opacity="1.000000"/>
		<g clip-path="url(#clip19_537)">
			<path id="Vector" d="M630.07 5.47C630.07 4.42 630.43 3.54 631.17 2.86C631.9 2.17 632.86 1.83 634.03 1.83C635.18 1.83 636.11 2.16 636.83 2.84C637.56 3.54 637.93 4.45 637.93 5.57C637.93 6.59 637.57 7.43 636.86 8.11C636.12 8.81 635.16 9.16 633.96 9.16L633.93 9.16C632.78 9.16 631.85 8.81 631.14 8.11C630.42 7.41 630.07 6.53 630.07 5.47ZM630.48 33.24L630.48 12.04L637.45 12.04L637.45 33.24L630.48 33.24ZM641.32 33.24L648.3 33.24L648.3 21.4C648.3 20.66 648.38 20.09 648.55 19.69C648.84 18.97 649.29 18.36 649.89 17.87C650.48 17.37 651.23 17.12 652.13 17.12C654.48 17.12 655.65 18.72 655.65 21.91L655.65 33.24L662.63 33.24L662.63 21.09C662.63 17.96 661.9 15.58 660.43 13.96C658.96 12.34 657.03 11.54 654.62 11.54C651.91 11.54 649.81 12.71 648.3 15.06L648.3 15.12L648.27 15.12L648.3 15.06L648.3 12.04L641.32 12.04C641.36 12.72 641.38 14.83 641.38 18.36C641.38 21.89 641.36 26.85 641.32 33.24Z" fill="#000000" fill-opacity="1.000000" fill-rule="nonzero"/>
		</g>
	</g>
	<g opacity="0.400000">
		<rect id="tiktok-logo" width="32.496868" height="32.496868" transform="translate(801.636292 1.289429)" fill="#FFFFFF" fill-opacity="1.000000"/>
		<g clip-path="url(#clip19_539)">
			<path id="Vector" d="M804.88 1.28L830.88 1.28C832.67 1.28 834.13 2.74 834.13 4.53L834.13 30.53C834.13 32.33 832.67 33.78 830.88 33.78L804.88 33.78C803.09 33.78 801.63 32.33 801.63 30.53L801.63 4.53C801.63 2.74 803.09 1.28 804.88 1.28Z" fill="#010101" fill-opacity="1.000000" fill-rule="evenodd"/>
			<path id="Vector" d="M822.04 31.18C823.03 31.18 823.83 30.39 823.83 29.41C823.83 28.42 823.03 27.63 822.04 27.63L821.77 27.63C822.76 27.63 823.56 28.42 823.56 29.41C823.56 30.39 822.76 31.18 821.77 31.18L822.04 31.18Z" fill="#C1C9CF" fill-opacity="1.000000" fill-rule="evenodd"/>
			<path id="Vector" d="M821.74 27.63L821.47 27.63C820.48 27.63 819.68 28.42 819.68 29.41C819.68 30.39 820.48 31.18 821.47 31.18L821.74 31.18C820.75 31.18 819.95 30.39 819.95 29.41C819.95 28.42 820.75 27.63 821.74 27.63Z" fill="#C1C9CF" fill-opacity="1.000000" fill-rule="evenodd"/>
			<path id="Vector" d="M822.63 29.41C822.63 29.88 822.24 30.27 821.76 30.27C821.27 30.27 820.88 29.88 820.88 29.41C820.88 28.93 821.27 28.54 821.76 28.54C822.24 28.54 822.63 28.93 822.63 29.41Z" fill="#010101" fill-opacity="1.000000" fill-rule="evenodd"/>
			<path id="Vector" d="M808.13 26.83L808.13 27.73L809.19 27.73L809.19 31.16L810.24 31.16L810.24 27.75L811.1 27.75L811.39 26.83L808.13 26.83ZM816.76 26.83L816.76 27.73L817.82 27.73L817.82 31.16L818.87 31.16L818.87 27.75L819.73 27.75L820.03 26.83L816.76 26.83ZM811.59 27.34C811.59 27.06 811.82 26.83 812.1 26.83C812.39 26.83 812.62 27.06 812.62 27.34C812.62 27.62 812.39 27.85 812.1 27.85C811.82 27.85 811.59 27.62 811.59 27.34ZM811.59 28.21L812.62 28.21L812.62 31.16L811.59 31.16L811.59 28.21ZM813.06 26.83L813.06 31.16L814.09 31.16L814.09 30.04L814.41 29.75L815.42 31.18L816.52 31.18L815.07 29.09L816.37 27.82L815.12 27.82L814.09 28.85L814.09 26.83L813.06 26.83ZM824.17 26.83L824.17 31.16L825.2 31.16L825.2 30.04L825.52 29.75L826.53 31.18L827.63 31.18L826.18 29.09L827.48 27.82L826.23 27.82L825.2 28.85L825.2 26.83L824.17 26.83Z" fill="#FFFFFF" fill-opacity="1.000000" fill-rule="evenodd"/>
			<path id="Vector" d="M822.58 11.84C824 12.85 825.75 13.45 827.63 13.45L827.63 9.83C827.27 9.83 826.92 9.79 826.57 9.72L826.57 12.57C824.69 12.57 822.94 11.97 821.52 10.96L821.52 18.34C821.52 22.04 818.52 25.04 814.83 25.04C813.45 25.04 812.16 24.62 811.1 23.9C812.32 25.15 814.01 25.92 815.89 25.92C819.58 25.92 822.58 22.92 822.58 19.23L822.58 11.84L822.58 11.84ZM823.89 8.19C823.16 7.39 822.68 6.37 822.58 5.23L822.58 4.77L821.58 4.77C821.83 6.21 822.69 7.44 823.89 8.19ZM813.44 21.07C813.03 20.54 812.81 19.88 812.81 19.21C812.81 17.52 814.18 16.15 815.88 16.15C816.19 16.15 816.5 16.2 816.8 16.3L816.8 12.6C816.45 12.55 816.1 12.53 815.75 12.54L815.75 15.42C815.44 15.32 815.13 15.27 814.82 15.27C813.12 15.27 811.75 16.64 811.75 18.33C811.75 19.53 812.44 20.56 813.44 21.07Z" fill="#C1C9CF" fill-opacity="1.000000" fill-rule="evenodd"/>
			<path id="Vector" d="M821.52 10.96C822.95 11.97 824.69 12.57 826.57 12.57L826.57 9.72C825.52 9.5 824.59 8.95 823.89 8.19C822.69 7.44 821.83 6.21 821.58 4.77L818.94 4.77L818.94 19.23C818.93 20.91 817.56 22.28 815.88 22.28C814.88 22.28 814 21.8 813.44 21.07C812.44 20.56 811.75 19.53 811.75 18.33C811.75 16.64 813.12 15.27 814.82 15.27C815.14 15.27 815.45 15.32 815.75 15.42L815.75 12.54C812.11 12.61 809.19 15.58 809.19 19.23C809.19 21.05 809.92 22.7 811.1 23.9C812.17 24.62 813.45 25.04 814.83 25.04C818.52 25.04 821.52 22.04 821.52 18.34L821.52 10.96Z" fill="#FFFFFF" fill-opacity="1.000000" fill-rule="evenodd"/>
			<path id="Vector" d="M826.57 9.72L826.57 8.95C825.62 8.95 824.69 8.69 823.89 8.19C824.6 8.96 825.54 9.5 826.57 9.72ZM821.58 4.77C821.55 4.63 821.53 4.49 821.52 4.35L821.52 3.88L817.88 3.88L817.88 18.34C817.87 20.03 816.5 21.39 814.82 21.39C814.32 21.39 813.85 21.28 813.44 21.07C814 21.8 814.88 22.28 815.88 22.28C817.56 22.28 818.93 20.91 818.94 19.23L818.94 4.77L821.58 4.77ZM815.75 12.54L815.75 11.71C815.44 11.67 815.13 11.65 814.83 11.65C811.13 11.65 808.13 14.65 808.13 18.34C808.13 20.66 809.31 22.7 811.1 23.9C809.92 22.7 809.19 21.05 809.19 19.23C809.19 15.58 812.11 12.61 815.75 12.54Z" fill="#C1C9CF" fill-opacity="1.000000" fill-rule="evenodd"/>
			<path id="Vector" d="M821.77 31.18C822.76 31.18 823.56 30.39 823.56 29.41C823.56 28.42 822.76 27.63 821.77 27.63L821.74 27.63C820.75 27.63 819.95 28.42 819.95 29.41C819.95 30.39 820.75 31.18 821.74 31.18L821.77 31.18ZM820.88 29.41C820.88 28.93 821.27 28.54 821.76 28.54C822.24 28.54 822.63 28.93 822.63 29.41C822.63 29.88 822.24 30.27 821.76 30.27C821.27 30.27 820.88 29.88 820.88 29.41Z" fill="#FFFFFF" fill-opacity="1.000000" fill-rule="evenodd"/>
		</g>
	</g>
</svg>
