<svg width="429.166290" height="264.000000" viewBox="0 0 429.166 264" fill="none" xmlns="http://www.w3.org/2000/svg" xmlns:xlink="http://www.w3.org/1999/xlink">
	<desc>
			Created with Pixso.
	</desc>
	<defs>
		<filter id="filter_19_35_dd" x="0.000000" y="0.000000" width="381.174835" height="264.000000" filterUnits="userSpaceOnUse" color-interpolation-filters="sRGB">
			<feFlood flood-opacity="0" result="BackgroundImageFix"/>
			<feColorMatrix in="SourceAlpha" type="matrix" values="0 0 0 0 0 0 0 0 0 0 0 0 0 0 0 0 0 0 127 0" result="hardAlpha"/>
			<feOffset dx="7" dy="10"/>
			<feGaussianBlur stdDeviation="16.6667"/>
			<feComposite in2="hardAlpha" operator="out" k2="-1" k3="1"/>
			<feColorMatrix type="matrix" values="0 0 0 0 0.9098 0 0 0 0 0.88627 0 0 0 0 0.94118 0 0 0 1 0"/>
			<feBlend mode="normal" in2="BackgroundImageFix" result="effect_dropShadow_1"/>
			<feBlend mode="normal" in="SourceGraphic" in2="effect_dropShadow_1" result="shape"/>
		</filter>
		<filter id="filter_39_1198_dd" x="0.000000" y="0.000000" width="104.000000" height="264.000000" filterUnits="userSpaceOnUse" color-interpolation-filters="sRGB">
			<feFlood flood-opacity="0" result="BackgroundImageFix"/>
			<feColorMatrix in="SourceAlpha" type="matrix" values="0 0 0 0 0 0 0 0 0 0 0 0 0 0 0 0 0 0 127 0" result="hardAlpha"/>
			<feOffset dx="7" dy="10"/>
			<feGaussianBlur stdDeviation="16.6667"/>
			<feComposite in2="hardAlpha" operator="out" k2="-1" k3="1"/>
			<feColorMatrix type="matrix" values="0 0 0 0 0.9098 0 0 0 0 0.88627 0 0 0 0 0.94118 0 0 0 1 0"/>
			<feBlend mode="normal" in2="BackgroundImageFix" result="effect_dropShadow_1"/>
			<feBlend mode="normal" in="SourceGraphic" in2="effect_dropShadow_1" result="shape"/>
		</filter>
		<clipPath id="clip46_1207">
			<rect id="cash-outline 1" width="24.000000" height="24.000000" transform="translate(85.235168 81.000000)" fill="white" fill-opacity="0"/>
		</clipPath>
		<linearGradient x1="42.999680" y1="49.909668" x2="46.999466" y2="231.329803" id="paint_linear_39_1198_0" gradientUnits="userSpaceOnUse">
			<stop stop-color="#00B5D0"/>
			<stop offset="1.000000" stop-color="#5C0E62"/>
		</linearGradient>
	</defs>
	<g filter="url(#filter_19_35_dd)">
		<rect id="Rectangle 4" x="43.000000" y="40.000000" rx="4.000000" width="281.174835" height="164.000000" fill="#FFFFFF" fill-opacity="1.000000"/>
	</g>
	<g filter="url(#filter_39_1198_dd)">
		<path id="Rectangle 3" d="M43 44C43 41.79 44.79 40 47 40L47 204C44.79 204 43 202.2 43 200L43 44Z" fill="url(#paint_linear_39_1198_0)" fill-opacity="1.000000" fill-rule="evenodd"/>
	</g>
	<rect id="cash-outline 1" width="24.000000" height="24.000000" transform="translate(85.235168 81.000000)" fill="#FFFFFF" fill-opacity="0"/>
	<g clip-path="url(#clip46_1207)">
		<path id="Vector" d="M87.48 96.75C87.07 96.75 86.73 96.41 86.73 96L86.73 85.5C86.73 85.08 87.07 84.75 87.48 84.75L106.98 84.75C107.39 84.75 107.73 85.08 107.73 85.5L107.73 96C107.73 96.41 107.39 96.75 106.98 96.75L87.48 96.75Z" stroke="#591567" stroke-opacity="1.000000" stroke-width="1.537556" stroke-linejoin="round"/>
		<path id="Vector" d="M106.23 99L88.23 99L106.23 99ZM89.73 101.25L104.73 101.25" stroke="#591567" stroke-opacity="1.000000" stroke-width="1.537556" stroke-linejoin="round" stroke-linecap="round"/>
		<path id="Vector" d="M97.23 94.5C95.16 94.5 93.48 92.82 93.48 90.75C93.48 88.67 95.16 87 97.23 87C99.3 87 100.98 88.67 100.98 90.75C100.98 92.82 99.3 94.5 97.23 94.5Z" stroke="#591567" stroke-opacity="1.000000" stroke-width="1.537556" stroke-linejoin="round"/>
		<path id="Vector" d="M105.08 87.4C104.38 86.69 103.98 85.74 103.98 84.75L107.73 88.5C106.74 88.5 105.78 88.1 105.08 87.4ZM88.17 88.21C88.62 88.02 89.03 87.74 89.38 87.4C89.73 87.05 90.01 86.64 90.19 86.18C90.38 85.73 90.48 85.24 90.48 84.75L86.73 88.5C87.22 88.5 87.71 88.4 88.17 88.21ZM105.08 94.09C104.38 94.8 103.98 95.75 103.98 96.75L107.73 93C106.74 93 105.78 93.39 105.08 94.09ZM86.73 93C87.22 93 87.71 93.09 88.17 93.28C88.62 93.47 89.03 93.75 89.38 94.09C89.73 94.44 90.01 94.86 90.19 95.31C90.38 95.76 90.48 96.25 90.48 96.75" stroke="#591567" stroke-opacity="1.000000" stroke-width="1.537556" stroke-linejoin="round" stroke-linecap="round"/>
	</g>
	<path id="Cashflow Visiblity" d="M222.17 113.76C222.17 114.69 221.36 115.45 220.37 115.45C219.38 115.45 218.57 114.69 218.57 113.76C218.57 112.84 219.38 112.08 220.37 112.08C221.36 112.08 222.17 112.84 222.17 113.76ZM242.28 113.76C242.28 114.69 241.46 115.45 240.47 115.45C239.48 115.45 238.67 114.69 238.67 113.76C238.67 112.84 239.48 112.08 240.47 112.08C241.46 112.08 242.28 112.84 242.28 113.76ZM270.86 113.76C270.86 114.69 270.05 115.45 269.06 115.45C268.07 115.45 267.26 114.69 267.26 113.76C267.26 112.84 268.07 112.08 269.06 112.08C270.05 112.08 270.86 112.84 270.86 113.76ZM149.55 117L151.94 117L151.94 119.49L149.55 119.49L149.55 129L146.22 129L146.22 119.49L144.53 119.49L144.53 117L146.22 117L146.22 116.13C146.22 113.52 147.91 112.24 150.17 112.24C151.19 112.24 152.1 112.45 152.51 112.58L151.93 115.07C151.67 114.99 151.26 114.9 150.86 114.9C149.88 114.9 149.55 115.38 149.55 116.19L149.55 117ZM93.79 112.77C97.5 112.77 100.29 114.9 100.74 118.6L97.32 118.6C97.06 116.84 95.72 115.77 93.87 115.77C91.4 115.77 89.77 117.67 89.77 121C89.77 124.42 91.42 126.22 93.85 126.22C95.65 126.22 97 125.24 97.32 123.53L100.74 123.54C100.37 126.49 97.9 129.22 93.79 129.22C89.51 129.22 86.34 126.21 86.34 121C86.34 115.76 89.56 112.77 93.79 112.77ZM136.51 119.61C135.15 119.61 134.2 120.51 134.2 122.06L134.2 129L130.87 129L130.87 113L134.1 113L134.1 119.11L134.25 119.11C134.79 117.7 136.01 116.84 137.83 116.84C140.33 116.84 141.99 118.54 141.98 121.35L141.98 129L138.65 129L138.65 121.95C138.66 120.47 137.86 119.61 136.51 119.61ZM154.85 113L158.18 113L158.18 129L154.85 129L154.85 113ZM200.55 113L204.31 113L208.18 125.15L208.33 125.15L212.2 113L215.95 113L210.44 129L206.08 129L200.55 113ZM249.01 129L245.73 129L245.73 113L249.06 113L249.06 119.01L249.15 119.01C249.6 118.03 250.56 116.84 252.57 116.84C255.2 116.84 257.43 118.89 257.43 123.01C257.43 127.02 255.3 129.19 252.56 129.19C250.62 129.19 249.61 128.07 249.15 127.07L249.01 127.07L249.01 129ZM260.52 113L263.85 113L263.85 129L260.52 129L260.52 113ZM278.37 117L280.63 117L280.63 119.49L278.37 119.49L278.37 125.31C278.37 126.23 278.83 126.48 279.5 126.48C279.81 126.48 280.16 126.4 280.33 126.37L280.85 128.85C280.51 128.96 279.9 129.13 279.04 129.16C276.63 129.26 275.03 128.1 275.05 125.75L275.05 119.49L273.4 119.49L273.4 117L275.05 117L275.05 114.12L278.37 114.12L278.37 117ZM110.91 127.33C110.33 128.45 109.18 129.22 107.41 129.22C105.12 129.22 103.43 128.02 103.43 125.64C103.43 122.96 105.56 122.17 107.93 121.95C110.02 121.74 110.84 121.64 110.84 120.87L110.84 120.83C110.84 119.84 110.19 119.27 109.05 119.27C107.86 119.27 107.15 119.85 106.92 120.65L103.84 120.4C104.31 118.22 106.2 116.84 109.07 116.84C111.75 116.84 114.17 118.04 114.17 120.9L114.17 129L111.01 129L111.01 127.33L110.91 127.33ZM122.51 116.84C125.54 116.84 127.32 118.2 127.61 120.42L124.57 120.61C124.4 119.83 123.72 119.2 122.56 119.2C121.53 119.2 120.72 119.67 120.72 120.39C120.72 120.97 121.13 121.35 122.25 121.59L124.42 122.03C126.75 122.5 127.88 123.54 127.89 125.28C127.88 127.64 125.65 129.23 122.54 129.23C119.36 129.23 117.41 127.81 117.1 125.52L120.37 125.35C120.58 126.33 121.37 126.83 122.56 126.83C123.72 126.83 124.49 126.33 124.5 125.61C124.49 125.01 124.02 124.63 122.97 124.42L120.89 124.01C118.54 123.53 117.41 122.37 117.42 120.57C117.41 118.26 119.43 116.84 122.51 116.84ZM173.04 123.04C173.04 126.74 170.78 129.23 167.14 129.23C163.5 129.23 161.23 126.74 161.23 123.04C161.23 119.32 163.5 116.84 167.14 116.84C170.78 116.84 173.04 119.32 173.04 123.04ZM230.43 116.84C233.46 116.84 235.25 118.2 235.54 120.42L232.5 120.61C232.33 119.83 231.64 119.2 230.49 119.2C229.46 119.2 228.65 119.67 228.65 120.39C228.65 120.97 229.06 121.35 230.18 121.59L232.35 122.03C234.68 122.5 235.81 123.54 235.82 125.28C235.81 127.64 233.58 129.23 230.47 129.23C227.29 129.23 225.34 127.81 225.03 125.52L228.3 125.35C228.51 126.33 229.3 126.83 230.48 126.83C231.64 126.83 232.42 126.33 232.43 125.61C232.42 125.01 231.94 124.63 230.9 124.42L228.82 124.01C226.47 123.53 225.34 122.37 225.35 120.57C225.34 118.26 227.36 116.84 230.43 116.84ZM181.68 129L178.16 129L174.9 117L178.27 117L180.12 125.06L180.23 125.06L182.17 117L185.47 117L187.45 125.01L187.55 125.01L189.37 117L192.74 117L189.48 129L185.95 129L183.89 121.45L183.74 121.45L181.68 129ZM222.02 129L218.69 129L218.69 117L222.02 117L222.02 129ZM242.13 129L238.8 129L238.8 117L242.13 117L242.13 129ZM270.71 129L267.38 129L267.38 117L270.71 117L270.71 129ZM290.2 130.29C289.52 132.23 288.21 133.5 285.73 133.5C284.89 133.5 284.11 133.36 283.64 133.15L284.39 130.67C285.56 131.03 286.39 130.97 286.83 129.85L287.03 129.34L282.72 117L286.22 117L288.71 125.81L288.83 125.81L291.34 117L294.86 117L290.2 130.29ZM164.61 123.02C164.61 125.11 165.47 126.65 167.15 126.65C168.8 126.65 169.66 125.11 169.66 123.02C169.66 120.92 168.8 119.38 167.15 119.38C165.47 119.38 164.61 120.92 164.61 123.02ZM251.51 119.49C249.89 119.49 248.98 120.85 248.98 123C248.98 125.13 249.9 126.54 251.51 126.54C253.14 126.54 254.03 125.09 254.03 123C254.03 120.92 253.15 119.49 251.51 119.49ZM106.61 125.54C106.61 126.45 107.34 126.93 108.36 126.93C109.82 126.93 110.86 125.97 110.86 124.7L110.86 123.43C110.46 123.7 109.27 123.87 108.55 123.97C107.38 124.13 106.61 124.6 106.61 125.54Z" fill="#5C5E6E" fill-opacity="1.000000" fill-rule="evenodd"/>
	<g opacity="0.700000">
		<path id="Now track all of your transaction easily." d="M218.78 150.27L220.73 150.27L220.73 151.41L218.78 151.41L218.78 159L217.43 159L217.43 151.41L216.03 151.41L216.03 150.27L217.43 150.27L217.43 149.06C217.43 147.56 218.64 146.81 219.89 146.81C220.55 146.81 220.96 146.95 221.16 147.04L220.78 148.2C220.64 148.16 220.41 148.06 220.03 148.06C219.14 148.06 218.78 148.52 218.78 149.38L218.78 150.27ZM346.93 147.91C346.93 148.41 346.51 148.81 345.98 148.81C345.46 148.81 345.02 148.41 345.02 147.91C345.02 147.41 345.46 147 345.98 147C346.51 147 346.93 147.41 346.93 147.91ZM409.24 147.91C409.24 148.41 408.81 148.81 408.29 148.81C407.77 148.81 407.33 148.41 407.33 147.91C407.33 147.41 407.77 147 408.29 147C408.81 147 409.24 147.41 409.24 147.91ZM94.48 147.36L95.87 147.36L95.87 159L94.5 159L88.16 149.86L88.05 149.86L88.05 159L86.64 159L86.64 147.36L88 147.36L94.37 156.52L94.48 156.52L94.48 147.36ZM165.92 159L164.58 159L164.58 147.36L165.92 147.36L165.92 154.16L166.08 154.16L169.9 150.27L171.56 150.27L167.87 154L171.83 159L170.13 159L166.86 154.86L165.92 155.73L165.92 159ZM190.41 147.36L191.75 147.36L191.75 159L190.41 159L190.41 147.36ZM195.4 147.36L196.74 147.36L196.74 159L195.4 159L195.4 147.36ZM412.6 147.36L413.94 147.36L413.94 159L412.6 159L412.6 147.36ZM131.99 150.27L133.85 150.27L133.85 151.41L131.99 151.41L131.99 156.5C131.99 157.63 132.55 157.81 133.14 157.81C133.44 157.81 133.62 157.77 133.74 157.75L134.01 158.95C133.83 159.02 133.51 159.11 133.01 159.11C131.87 159.11 130.64 158.38 130.64 156.86L130.64 151.41L129.33 151.41L129.33 150.27L130.64 150.27L130.64 148.18L131.99 148.18L131.99 150.27ZM275.34 150.27L277.2 150.27L277.2 151.41L275.34 151.41L275.34 156.5C275.34 157.63 275.9 157.81 276.49 157.81C276.79 157.81 276.97 157.77 277.09 157.75L277.36 158.95C277.18 159.02 276.86 159.11 276.36 159.11C275.22 159.11 273.99 158.38 273.99 156.86L273.99 151.41L272.68 151.41L272.68 150.27L273.99 150.27L273.99 148.18L275.34 148.18L275.34 150.27ZM340.21 150.27L342.08 150.27L342.08 151.41L340.21 151.41L340.21 156.5C340.21 157.63 340.78 157.81 341.37 157.81C341.67 157.81 341.85 157.77 341.96 157.75L342.24 158.95C342.05 159.02 341.74 159.11 341.24 159.11C340.1 159.11 338.87 158.38 338.87 156.86L338.87 151.41L337.55 151.41L337.55 150.27L338.87 150.27L338.87 148.18L340.21 148.18L340.21 150.27ZM138.41 159L137.07 159L137.07 150.27L138.37 150.27L138.37 151.59L138.46 151.59C138.78 150.72 139.68 150.13 140.73 150.13C140.93 150.13 141.28 150.14 141.43 150.16L141.43 151.52C141.34 151.5 140.97 151.43 140.62 151.43C139.34 151.43 138.41 152.29 138.41 153.47L138.41 159ZM261.89 159L260.55 159L260.55 150.27L261.84 150.27L261.84 151.59L261.93 151.59C262.26 150.72 263.16 150.13 264.21 150.13C264.41 150.13 264.76 150.14 264.91 150.16L264.91 151.52C264.82 151.5 264.45 151.43 264.09 151.43C262.82 151.43 261.89 152.29 261.89 153.47L261.89 159ZM281.76 159L280.42 159L280.42 150.27L281.72 150.27L281.72 151.59L281.81 151.59C282.13 150.72 283.03 150.13 284.08 150.13C284.28 150.13 284.63 150.14 284.78 150.16L284.78 151.52C284.69 151.5 284.32 151.43 283.97 151.43C282.69 151.43 281.76 152.29 281.76 153.47L281.76 159ZM107.2 154.68C107.2 157.38 105.61 159.18 103.25 159.18C100.89 159.18 99.29 157.38 99.29 154.68C99.29 151.95 100.89 150.16 103.25 150.16C105.61 150.16 107.2 151.95 107.2 154.68ZM149.39 157.81C149.11 158.38 148.32 159.2 146.8 159.2C145.14 159.2 143.82 158.22 143.82 156.52C143.82 154.52 145.58 154.16 147.2 153.95C148.8 153.75 149.45 153.8 149.45 153.16L149.45 153.11C149.45 151.99 148.85 151.34 147.61 151.34C146.33 151.34 145.64 152.02 145.34 152.66L144.07 152.2C144.75 150.61 146.25 150.16 147.57 150.16C148.68 150.16 150.8 150.47 150.8 153.25L150.8 159L149.45 159L149.45 157.81L149.39 157.81ZM161.42 156.45C161.2 158 159.92 159.18 158 159.18C155.54 159.18 154.04 157.29 154.04 154.68C154.04 152.02 155.61 150.16 157.97 150.16C159.81 150.16 161.2 151.25 161.42 152.88L160.08 152.88C159.88 152.09 159.17 151.36 158 151.36C156.42 151.36 155.38 152.66 155.38 154.63C155.38 156.66 156.41 157.97 158 157.97C159.04 157.97 159.83 157.41 160.08 156.45L161.42 156.45ZM185.34 157.81C185.07 158.38 184.27 159.2 182.75 159.2C181.09 159.2 179.77 158.22 179.77 156.52C179.77 154.52 181.54 154.16 183.16 153.95C184.75 153.75 185.41 153.8 185.41 153.16L185.41 153.11C185.41 151.99 184.81 151.34 183.57 151.34C182.29 151.34 181.59 152.02 181.3 152.66L180.02 152.2C180.71 150.61 182.21 150.16 183.52 150.16C184.64 150.16 186.75 150.47 186.75 153.25L186.75 159L185.41 159L185.41 157.81L185.34 157.81ZM213.6 154.68C213.6 157.38 212.01 159.18 209.65 159.18C207.28 159.18 205.69 157.38 205.69 154.68C205.69 151.95 207.28 150.16 209.65 150.16C212.01 150.16 213.6 151.95 213.6 154.68ZM246.81 154.68C246.81 157.38 245.22 159.18 242.85 159.18C240.49 159.18 238.9 157.38 238.9 154.68C238.9 151.95 240.49 150.16 242.85 150.16C245.22 150.16 246.81 151.95 246.81 154.68ZM292.74 157.81C292.46 158.38 291.67 159.2 290.15 159.2C288.49 159.2 287.17 158.22 287.17 156.52C287.17 154.52 288.93 154.16 290.55 153.95C292.15 153.75 292.8 153.8 292.8 153.16L292.8 153.11C292.8 151.99 292.2 151.34 290.96 151.34C289.68 151.34 288.99 152.02 288.69 152.66L287.42 152.2C288.1 150.61 289.6 150.16 290.92 150.16C292.03 150.16 294.15 150.47 294.15 153.25L294.15 159L292.8 159L292.8 157.81L292.74 157.81ZM301.37 151.36C300.08 151.36 299.14 152.22 299.14 153.75L299.14 159L297.8 159L297.8 150.27L299.09 150.27L299.09 151.63L299.21 151.63C299.62 150.75 300.43 150.16 301.76 150.16C303.52 150.16 304.71 151.22 304.71 153.45L304.71 159L303.37 159L303.37 153.54C303.37 152.17 302.61 151.36 301.37 151.36ZM311.45 150.16C313.18 150.16 314.12 150.98 314.54 152.22L313.34 152.56C313.11 151.96 312.62 151.31 311.45 151.31C310.39 151.31 309.59 151.86 309.59 152.61C309.59 153.28 310.06 153.62 311.09 153.88L312.39 154.2C313.94 154.58 314.7 155.35 314.7 156.56C314.7 158.07 313.32 159.18 311.29 159.18C309.51 159.18 308.29 158.39 307.97 156.91L309.25 156.59C309.49 157.52 310.17 158 311.27 158C312.52 158 313.32 157.38 313.32 156.63C313.32 156.03 312.9 155.61 312.02 155.41L310.57 155.06C308.96 154.69 308.25 153.88 308.25 152.68C308.25 151.2 309.61 150.16 311.45 150.16ZM323.09 157.81C322.81 158.38 322.01 159.2 320.5 159.2C318.84 159.2 317.51 158.22 317.51 156.52C317.51 154.52 319.28 154.16 320.9 153.95C322.5 153.75 323.15 153.8 323.15 153.16L323.15 153.11C323.15 151.99 322.55 151.34 321.31 151.34C320.03 151.34 319.34 152.02 319.04 152.66L317.76 152.2C318.45 150.61 319.95 150.16 321.26 150.16C322.38 150.16 324.5 150.47 324.5 153.25L324.5 159L323.15 159L323.15 157.81L323.09 157.81ZM335.12 156.45C334.9 158 333.62 159.18 331.69 159.18C329.24 159.18 327.74 157.29 327.74 154.68C327.74 152.02 329.31 150.16 331.67 150.16C333.51 150.16 334.9 151.25 335.12 152.88L333.78 152.88C333.58 152.09 332.87 151.36 331.69 151.36C330.12 151.36 329.08 152.66 329.08 154.63C329.08 156.66 330.11 157.97 331.69 157.97C332.74 157.97 333.53 157.41 333.78 156.45L335.12 156.45ZM357.79 154.68C357.79 157.38 356.2 159.18 353.84 159.18C351.48 159.18 349.88 157.38 349.88 154.68C349.88 151.95 351.48 150.16 353.84 150.16C356.2 150.16 357.79 151.95 357.79 154.68ZM364.61 151.36C363.32 151.36 362.38 152.22 362.38 153.75L362.38 159L361.04 159L361.04 150.27L362.34 150.27L362.34 151.63L362.45 151.63C362.86 150.75 363.68 150.16 365 150.16C366.76 150.16 367.95 151.22 367.95 153.45L367.95 159L366.61 159L366.61 153.54C366.61 152.17 365.85 151.36 364.61 151.36ZM384.44 156.97C384.03 158.29 382.74 159.18 380.96 159.18C378.44 159.18 376.89 157.38 376.89 154.7C376.89 152.02 378.46 150.16 380.83 150.16C382.64 150.16 384.58 151.27 384.58 154.52L384.58 155.09L378.24 155.09C378.3 156.96 379.39 157.97 380.96 157.97C382.01 157.97 382.8 157.52 383.14 156.61L384.44 156.97ZM392.98 157.81C392.71 158.38 391.91 159.2 390.39 159.2C388.73 159.2 387.41 158.22 387.41 156.52C387.41 154.52 389.18 154.16 390.8 153.95C392.39 153.75 393.05 153.8 393.05 153.16L393.05 153.11C393.05 151.99 392.44 151.34 391.21 151.34C389.93 151.34 389.23 152.02 388.93 152.66L387.66 152.2C388.34 150.61 389.84 150.16 391.16 150.16C392.28 150.16 394.39 150.47 394.39 153.25L394.39 159L393.05 159L393.05 157.81L392.98 157.81ZM401.13 150.16C402.86 150.16 403.81 150.98 404.23 152.22L403.02 152.56C402.79 151.96 402.31 151.31 401.13 151.31C400.07 151.31 399.27 151.86 399.27 152.61C399.27 153.28 399.74 153.62 400.77 153.88L402.07 154.2C403.63 154.58 404.38 155.35 404.38 156.56C404.38 158.07 403 159.18 400.98 159.18C399.19 159.18 397.97 158.39 397.66 156.91L398.93 156.59C399.17 157.52 399.86 158 400.95 158C402.2 158 403 157.38 403 156.63C403 156.03 402.58 155.61 401.7 155.41L400.25 155.06C398.65 154.69 397.93 153.88 397.93 152.68C397.93 151.2 399.29 150.16 401.13 150.16ZM113.45 159L112.13 159L109.47 150.27L110.88 150.27L112.77 156.95L112.86 156.95L114.72 150.27L116.15 150.27L117.99 156.93L118.09 156.93L119.97 150.27L121.38 150.27L118.72 159L117.4 159L115.49 152.29L115.36 152.29L113.45 159ZM232.95 160.27C232.44 161.62 231.59 162.27 230.38 162.27C229.93 162.27 229.54 162.18 229.4 162.11L229.74 160.93C230.72 161.18 231.32 161.05 231.81 159.72L232.06 159.04L228.84 150.27L230.29 150.27L232.7 157.22L232.79 157.22L235.2 150.27L236.65 150.27L232.95 160.27ZM253.3 157.81C254.3 157.81 255.55 157.06 255.55 155.43L255.55 150.27L256.89 150.27L256.89 159L255.55 159L255.55 157.52L255.46 157.52C255.05 158.41 254.19 159.11 252.87 159.11C251.24 159.11 250.05 158.04 250.05 155.81L250.05 150.27L251.39 150.27L251.39 155.72C251.39 157 252.19 157.81 253.3 157.81ZM346.64 159L345.3 159L345.3 150.27L346.64 150.27L346.64 159ZM408.95 159L407.61 159L407.61 150.27L408.95 150.27L408.95 159ZM421.03 160.27C420.52 161.62 419.67 162.27 418.46 162.27C418.01 162.27 417.62 162.18 417.48 162.11L417.82 160.93C418.81 161.18 419.41 161.05 419.9 159.72L420.15 159.04L416.92 150.27L418.37 150.27L420.78 157.22L420.87 157.22L423.28 150.27L424.73 150.27L421.03 160.27ZM100.64 154.68C100.64 156.43 101.45 157.97 103.25 157.97C105.04 157.97 105.86 156.43 105.86 154.68C105.86 152.93 105.04 151.36 103.25 151.36C101.45 151.36 100.64 152.93 100.64 154.68ZM207.03 154.68C207.03 156.43 207.85 157.97 209.65 157.97C211.44 157.97 212.26 156.43 212.26 154.68C212.26 152.93 211.44 151.36 209.65 151.36C207.85 151.36 207.03 152.93 207.03 154.68ZM240.24 154.68C240.24 156.43 241.06 157.97 242.85 157.97C244.65 157.97 245.47 156.43 245.47 154.68C245.47 152.93 244.65 151.36 242.85 151.36C241.06 151.36 240.24 152.93 240.24 154.68ZM351.23 154.68C351.23 156.43 352.04 157.97 353.84 157.97C355.63 157.97 356.45 156.43 356.45 154.68C356.45 152.93 355.63 151.36 353.84 151.36C352.04 151.36 351.23 152.93 351.23 154.68ZM380.83 151.36C379.29 151.36 378.33 152.57 378.24 153.93L383.21 153.93C383.21 152.45 382.28 151.36 380.83 151.36ZM145.16 156.59C145.16 157.52 145.93 158 147 158C148.59 158 149.45 156.93 149.45 155.84L149.45 154.61C149.23 154.88 147.7 155.04 147.14 155.11C146.09 155.25 145.16 155.56 145.16 156.59ZM181.12 156.59C181.12 157.52 181.89 158 182.96 158C184.55 158 185.41 156.93 185.41 155.84L185.41 154.61C185.18 154.88 183.66 155.04 183.09 155.11C182.05 155.25 181.12 155.56 181.12 156.59ZM288.51 156.59C288.51 157.52 289.28 158 290.35 158C291.94 158 292.8 156.93 292.8 155.84L292.8 154.61C292.57 154.88 291.05 155.04 290.49 155.11C289.44 155.25 288.51 155.56 288.51 156.59ZM318.86 156.59C318.86 157.52 319.63 158 320.7 158C322.29 158 323.15 156.93 323.15 155.84L323.15 154.61C322.93 154.88 321.4 155.04 320.84 155.11C319.79 155.25 318.86 155.56 318.86 156.59ZM388.75 156.59C388.75 157.52 389.53 158 390.59 158C392.18 158 393.05 156.93 393.05 155.84L393.05 154.61C392.82 154.88 391.3 155.04 390.73 155.11C389.68 155.25 388.75 155.56 388.75 156.59ZM429.16 158.06C429.16 158.62 428.7 159.09 428.14 159.09C427.58 159.09 427.12 158.62 427.12 158.06C427.12 157.5 427.58 157.04 428.14 157.04C428.7 157.04 429.16 157.5 429.16 158.06Z" fill="#756F6F" fill-opacity="1.000000" fill-rule="evenodd"/>
	</g>
</svg>
