<svg width="435.855560" height="264.000000" viewBox="0 0 435.856 264" fill="none" xmlns="http://www.w3.org/2000/svg" xmlns:xlink="http://www.w3.org/1999/xlink">
	<desc>
			Created with Pixso.
	</desc>
	<defs>
		<filter id="filter_19_40_dd" x="0.000000" y="0.000000" width="380.000000" height="264.000000" filterUnits="userSpaceOnUse" color-interpolation-filters="sRGB">
			<feFlood flood-opacity="0" result="BackgroundImageFix"/>
			<feColorMatrix in="SourceAlpha" type="matrix" values="0 0 0 0 0 0 0 0 0 0 0 0 0 0 0 0 0 0 127 0" result="hardAlpha"/>
			<feOffset dx="7" dy="10"/>
			<feGaussianBlur stdDeviation="16.6667"/>
			<feComposite in2="hardAlpha" operator="out" k2="-1" k3="1"/>
			<feColorMatrix type="matrix" values="0 0 0 0 0.9098 0 0 0 0 0.88627 0 0 0 0 0.94118 0 0 0 1 0"/>
			<feBlend mode="normal" in2="BackgroundImageFix" result="effect_dropShadow_1"/>
			<feBlend mode="normal" in="SourceGraphic" in2="effect_dropShadow_1" result="shape"/>
		</filter>
		<filter id="filter_39_1194_dd" x="0.000000" y="0.000000" width="105.000000" height="264.000000" filterUnits="userSpaceOnUse" color-interpolation-filters="sRGB">
			<feFlood flood-opacity="0" result="BackgroundImageFix"/>
			<feColorMatrix in="SourceAlpha" type="matrix" values="0 0 0 0 0 0 0 0 0 0 0 0 0 0 0 0 0 0 127 0" result="hardAlpha"/>
			<feOffset dx="7" dy="10"/>
			<feGaussianBlur stdDeviation="16.6667"/>
			<feComposite in2="hardAlpha" operator="out" k2="-1" k3="1"/>
			<feColorMatrix type="matrix" values="0 0 0 0 0.9098 0 0 0 0 0.88627 0 0 0 0 0.94118 0 0 0 1 0"/>
			<feBlend mode="normal" in2="BackgroundImageFix" result="effect_dropShadow_1"/>
			<feBlend mode="normal" in="SourceGraphic" in2="effect_dropShadow_1" result="shape"/>
		</filter>
		<clipPath id="clip46_1204">
			<rect id="accessibility-outline 1" width="24.000000" height="24.000000" transform="translate(91.924438 80.662109)" fill="white" fill-opacity="0"/>
		</clipPath>
		<linearGradient x1="43.000320" y1="49.909660" x2="47.999481" y2="231.329483" id="paint_linear_39_1194_0" gradientUnits="userSpaceOnUse">
			<stop stop-color="#00B5D0"/>
			<stop offset="1.000000" stop-color="#5C0E62"/>
		</linearGradient>
	</defs>
	<g filter="url(#filter_19_40_dd)">
		<rect id="Rectangle 3" x="43.000000" y="40.000000" rx="4.000000" width="280.000000" height="164.000000" fill="#FFFFFF" fill-opacity="1.000000"/>
	</g>
	<g filter="url(#filter_39_1194_dd)">
		<path id="Rectangle 3" d="M43 45C43 42.23 45.23 40 48 40L48 204C45.23 204 43 201.76 43 199L43 45Z" fill="url(#paint_linear_39_1194_0)" fill-opacity="1.000000" fill-rule="evenodd"/>
	</g>
	<rect id="accessibility-outline 1" width="24.000000" height="24.000000" transform="translate(91.924438 80.662109)" fill="#FFFFFF" fill-opacity="0"/>
	<g clip-path="url(#clip46_1204)">
		<path id="Vector" d="M103.92 85.16C102.88 85.16 102.04 84.32 102.04 83.28C102.04 82.25 102.88 81.41 103.92 81.41C104.96 81.41 105.79 82.25 105.79 83.28C105.79 84.32 104.96 85.16 103.92 85.16Z" stroke="#591567" stroke-opacity="1.000000" stroke-width="1.500000" stroke-linejoin="round"/>
		<path id="Vector" d="M101.47 91.29C101.28 90.8 100.87 90.53 100.38 90.35L96.04 88.94C95.48 88.76 94.96 88.44 94.92 87.82C94.87 87.02 95.58 86.51 96.28 86.7C96.28 86.7 100.4 88.16 103.92 88.16C107.44 88.16 111.51 86.7 111.51 86.7C112.36 86.47 112.92 87.12 112.92 87.82C112.92 88.48 112.4 88.72 111.79 88.94L107.67 90.44C107.29 90.58 106.69 90.86 106.45 91.29C106.17 91.79 106.22 92.67 106.35 93.52L106.63 94.91L108.38 102.59C108.51 103.21 108.09 103.78 107.47 103.89C106.86 104 106.36 103.58 106.18 102.98L104.41 97.55C104.33 97.29 104.26 97.02 104.19 96.76L103.92 95.66L103.67 96.67C103.59 97 103.5 97.32 103.4 97.63L101.67 102.98C101.48 103.58 100.99 104 100.38 103.89C99.76 103.78 99.33 103.16 99.46 102.59L101.22 94.91L101.49 93.52C101.63 92.67 101.69 91.86 101.47 91.29Z" stroke="#591567" stroke-opacity="1.000000" stroke-width="1.500000" stroke-linejoin="round"/>
	</g>
	<path id="Easy Access" d="M104.12 128.66L93.31 128.66L93.31 112.66L104.09 112.66L104.09 115.44L96.69 115.44L96.69 119.26L103.54 119.26L103.54 122.05L96.69 122.05L96.69 125.87L104.12 125.87L104.12 128.66ZM158.25 125.01L157.06 128.66L153.43 128.66L158.96 112.66L163.32 112.66L168.83 128.66L165.21 128.66L164.02 125.01L158.25 125.01ZM161.08 116.31L159.11 122.37L163.17 122.37L161.2 116.31L161.08 116.31ZM114.53 126.99C113.95 128.11 112.8 128.88 111.02 128.88C108.74 128.88 107.04 127.68 107.04 125.31C107.04 122.63 109.18 121.83 111.55 121.61C113.63 121.41 114.46 121.3 114.46 120.53L114.46 120.49C114.46 119.5 113.81 118.93 112.67 118.93C111.48 118.93 110.77 119.52 110.54 120.32L107.46 120.06C107.93 117.88 109.82 116.5 112.69 116.5C115.36 116.5 117.79 117.71 117.79 120.56L117.79 128.66L114.63 128.66L114.63 126.99L114.53 126.99ZM126.13 116.5C129.16 116.5 130.94 117.87 131.23 120.08L128.19 120.27C128.02 119.49 127.33 118.86 126.18 118.86C125.15 118.86 124.34 119.33 124.34 120.05C124.34 120.63 124.75 121.01 125.87 121.25L128.04 121.69C130.37 122.16 131.5 123.21 131.51 124.94C131.5 127.3 129.27 128.89 126.16 128.89C122.98 128.89 121.03 127.48 120.72 125.18L123.99 125.01C124.2 125.99 124.99 126.49 126.17 126.49C127.33 126.49 128.11 125.99 128.12 125.27C128.11 124.67 127.64 124.29 126.59 124.08L124.51 123.67C122.16 123.2 121.03 122.04 121.04 120.24C121.03 117.92 123.05 116.5 126.13 116.5ZM181.8 124.26C181.63 127.02 179.63 128.89 176.44 128.89C172.74 128.89 170.53 126.35 170.53 122.71C170.53 119.03 172.78 116.5 176.42 116.5C179.55 116.5 181.65 118.32 181.8 121.1L178.65 121.1C178.47 119.9 177.69 119.1 176.47 119.1C174.93 119.1 173.91 120.39 173.91 122.66C173.91 124.96 174.92 126.26 176.47 126.26C177.61 126.26 178.46 125.54 178.65 124.26L181.8 124.26ZM195.6 124.26C195.44 127.02 193.43 128.89 190.24 128.89C186.54 128.89 184.33 126.35 184.33 122.71C184.33 119.03 186.58 116.5 190.22 116.5C193.35 116.5 195.45 118.32 195.6 121.1L192.46 121.1C192.27 119.9 191.49 119.1 190.28 119.1C188.73 119.1 187.71 120.39 187.71 122.66C187.71 124.96 188.72 126.26 190.28 126.26C191.41 126.26 192.26 125.54 192.46 124.26L195.6 124.26ZM209.52 125.22C209.06 127.45 207.05 128.89 204.08 128.89C200.39 128.89 198.13 126.51 198.13 122.71C198.13 119.01 200.42 116.5 203.95 116.5C207.12 116.5 209.59 118.52 209.59 122.59L209.59 123.51L201.42 123.51L201.42 123.52C201.42 125.31 202.48 126.41 204.14 126.41C205.25 126.41 206.11 125.93 206.45 125.02L209.52 125.22ZM217.52 116.5C220.55 116.5 222.33 117.87 222.63 120.08L219.58 120.27C219.42 119.49 218.73 118.86 217.57 118.86C216.54 118.86 215.73 119.33 215.74 120.05C215.73 120.63 216.15 121.01 217.26 121.25L219.43 121.69C221.76 122.16 222.9 123.21 222.9 124.94C222.9 127.3 220.67 128.89 217.56 128.89C214.38 128.89 212.43 127.48 212.11 125.18L215.39 125.01C215.59 125.99 216.38 126.49 217.57 126.49C218.73 126.49 219.5 125.99 219.52 125.27C219.5 124.67 219.03 124.29 217.98 124.08L215.9 123.67C213.56 123.2 212.43 122.04 212.43 120.24C212.43 117.92 214.45 116.5 217.52 116.5ZM230.76 116.5C233.79 116.5 235.57 117.87 235.87 120.08L232.82 120.27C232.66 119.49 231.97 118.86 230.81 118.86C229.78 118.86 228.97 119.33 228.98 120.05C228.97 120.63 229.38 121.01 230.5 121.25L232.67 121.69C235 122.16 236.14 123.21 236.14 124.94C236.14 127.3 233.91 128.89 230.8 128.89C227.62 128.89 225.67 127.48 225.35 125.18L228.63 125.01C228.83 125.99 229.62 126.49 230.81 126.49C231.97 126.49 232.74 125.99 232.76 125.27C232.74 124.67 232.27 124.29 231.22 124.08L229.14 123.67C226.8 123.2 225.67 122.04 225.67 120.24C225.67 117.92 227.69 116.5 230.76 116.5ZM141.01 129.95C140.33 131.89 139.02 133.16 136.55 133.16C135.7 133.16 134.93 133.02 134.45 132.81L135.2 130.33C136.37 130.69 137.21 130.63 137.65 129.51L137.84 129L133.54 116.66L137.03 116.66L139.52 125.47L139.64 125.47L142.15 116.66L145.68 116.66L141.01 129.95ZM204.01 118.98C202.53 118.98 201.49 120.08 201.42 121.44L206.46 121.44C206.45 120.02 205.45 118.98 204.01 118.98ZM110.22 125.2C110.22 126.11 110.95 126.59 111.98 126.59C113.44 126.59 114.48 125.63 114.48 124.37L114.48 123.09C114.08 123.36 112.89 123.53 112.17 123.64C111 123.8 110.22 124.26 110.22 125.2Z" fill="#5C5E6E" fill-opacity="1.000000" fill-rule="evenodd"/>
	<g opacity="0.700000">
		<path id="Now track all of your transaction easily." d="M225.47 149.93L227.42 149.93L227.42 151.07L225.47 151.07L225.47 158.66L224.12 158.66L224.12 151.07L222.72 151.07L222.72 149.93L224.12 149.93L224.12 148.72C224.12 147.22 225.33 146.47 226.58 146.47C227.24 146.47 227.65 146.61 227.85 146.7L227.47 147.86C227.33 147.82 227.1 147.72 226.72 147.72C225.83 147.72 225.47 148.18 225.47 149.04L225.47 149.93ZM353.62 147.57C353.62 148.07 353.19 148.47 352.67 148.47C352.15 148.47 351.71 148.07 351.71 147.57C351.71 147.07 352.15 146.66 352.67 146.66C353.19 146.66 353.62 147.07 353.62 147.57ZM415.93 147.57C415.93 148.07 415.5 148.47 414.98 148.47C414.46 148.47 414.02 148.07 414.02 147.57C414.02 147.07 414.46 146.66 414.98 146.66C415.5 146.66 415.93 147.07 415.93 147.57ZM101.17 147.02L102.56 147.02L102.56 158.66L101.19 158.66L94.85 149.52L94.74 149.52L94.74 158.66L93.33 158.66L93.33 147.02L94.69 147.02L101.06 156.18L101.17 156.18L101.17 147.02ZM172.61 158.66L171.27 158.66L171.27 147.02L172.61 147.02L172.61 153.82L172.77 153.82L176.59 149.93L178.25 149.93L174.56 153.66L178.52 158.66L176.82 158.66L173.55 154.52L172.61 155.39L172.61 158.66ZM197.1 147.02L198.44 147.02L198.44 158.66L197.1 158.66L197.1 147.02ZM202.09 147.02L203.43 147.02L203.43 158.66L202.09 158.66L202.09 147.02ZM419.29 147.02L420.63 147.02L420.63 158.66L419.29 158.66L419.29 147.02ZM138.67 149.93L140.54 149.93L140.54 151.07L138.67 151.07L138.67 156.16C138.67 157.29 139.24 157.47 139.83 157.47C140.13 157.47 140.31 157.43 140.42 157.41L140.7 158.61C140.52 158.68 140.2 158.77 139.7 158.77C138.56 158.77 137.33 158.04 137.33 156.52L137.33 151.07L136.02 151.07L136.02 149.93L137.33 149.93L137.33 147.84L138.67 147.84L138.67 149.93ZM282.03 149.93L283.89 149.93L283.89 151.07L282.03 151.07L282.03 156.16C282.03 157.29 282.59 157.47 283.18 157.47C283.48 157.47 283.66 157.43 283.78 157.41L284.05 158.61C283.87 158.68 283.55 158.77 283.05 158.77C281.91 158.77 280.68 158.04 280.68 156.52L280.68 151.07L279.37 151.07L279.37 149.93L280.68 149.93L280.68 147.84L282.03 147.84L282.03 149.93ZM346.9 149.93L348.77 149.93L348.77 151.07L346.9 151.07L346.9 156.16C346.9 157.29 347.47 157.47 348.06 157.47C348.36 157.47 348.54 157.43 348.65 157.41L348.93 158.61C348.74 158.68 348.43 158.77 347.93 158.77C346.79 158.77 345.56 158.04 345.56 156.52L345.56 151.07L344.24 151.07L344.24 149.93L345.56 149.93L345.56 147.84L346.9 147.84L346.9 149.93ZM145.1 158.66L143.76 158.66L143.76 149.93L145.06 149.93L145.06 151.25L145.15 151.25C145.47 150.38 146.37 149.79 147.42 149.79C147.62 149.79 147.97 149.81 148.12 149.82L148.12 151.18C148.03 151.16 147.66 151.09 147.31 151.09C146.03 151.09 145.1 151.95 145.1 153.13L145.1 158.66ZM268.58 158.66L267.24 158.66L267.24 149.93L268.53 149.93L268.53 151.25L268.62 151.25C268.94 150.38 269.85 149.79 270.9 149.79C271.1 149.79 271.45 149.81 271.6 149.82L271.6 151.18C271.51 151.16 271.14 151.09 270.78 151.09C269.51 151.09 268.58 151.95 268.58 153.13L268.58 158.66ZM288.45 158.66L287.11 158.66L287.11 149.93L288.41 149.93L288.41 151.25L288.5 151.25C288.82 150.38 289.72 149.79 290.77 149.79C290.97 149.79 291.32 149.81 291.47 149.82L291.47 151.18C291.38 151.16 291.01 151.09 290.66 151.09C289.38 151.09 288.45 151.95 288.45 153.13L288.45 158.66ZM113.89 154.34C113.89 157.04 112.3 158.84 109.94 158.84C107.58 158.84 105.98 157.04 105.98 154.34C105.98 151.61 107.58 149.82 109.94 149.82C112.3 149.82 113.89 151.61 113.89 154.34ZM156.07 157.47C155.8 158.04 155 158.86 153.49 158.86C151.82 158.86 150.5 157.88 150.5 156.18C150.5 154.18 152.27 153.82 153.89 153.61C155.49 153.41 156.14 153.47 156.14 152.82L156.14 152.77C156.14 151.65 155.53 151 154.3 151C153.02 151 152.32 151.68 152.03 152.32L150.75 151.86C151.44 150.27 152.94 149.82 154.25 149.82C155.37 149.82 157.49 150.13 157.49 152.91L157.49 158.66L156.14 158.66L156.14 157.47L156.07 157.47ZM168.11 156.11C167.89 157.66 166.61 158.84 164.68 158.84C162.23 158.84 160.73 156.95 160.73 154.34C160.73 151.68 162.3 149.82 164.66 149.82C166.5 149.82 167.89 150.91 168.11 152.54L166.77 152.54C166.57 151.75 165.86 151.02 164.68 151.02C163.11 151.02 162.07 152.32 162.07 154.29C162.07 156.32 163.09 157.63 164.68 157.63C165.73 157.63 166.52 157.07 166.77 156.11L168.11 156.11ZM192.03 157.47C191.76 158.04 190.96 158.86 189.44 158.86C187.78 158.86 186.46 157.88 186.46 156.18C186.46 154.18 188.23 153.82 189.85 153.61C191.44 153.41 192.1 153.47 192.1 152.82L192.1 152.77C192.1 151.65 191.49 151 190.26 151C188.98 151 188.28 151.68 187.99 152.32L186.71 151.86C187.4 150.27 188.9 149.82 190.21 149.82C191.33 149.82 193.44 150.13 193.44 152.91L193.44 158.66L192.1 158.66L192.1 157.47L192.03 157.47ZM220.29 154.34C220.29 157.04 218.7 158.84 216.33 158.84C213.97 158.84 212.38 157.04 212.38 154.34C212.38 151.61 213.97 149.82 216.33 149.82C218.7 149.82 220.29 151.61 220.29 154.34ZM253.5 154.34C253.5 157.04 251.91 158.84 249.54 158.84C247.18 158.84 245.59 157.04 245.59 154.34C245.59 151.61 247.18 149.82 249.54 149.82C251.91 149.82 253.5 151.61 253.5 154.34ZM299.42 157.47C299.15 158.04 298.35 158.86 296.83 158.86C295.17 158.86 293.85 157.88 293.85 156.18C293.85 154.18 295.62 153.82 297.24 153.61C298.83 153.41 299.49 153.47 299.49 152.82L299.49 152.77C299.49 151.65 298.89 151 297.65 151C296.37 151 295.67 151.68 295.38 152.32L294.1 151.86C294.79 150.27 296.29 149.82 297.6 149.82C298.72 149.82 300.83 150.13 300.83 152.91L300.83 158.66L299.49 158.66L299.49 157.47L299.42 157.47ZM308.06 151.02C306.77 151.02 305.83 151.88 305.83 153.41L305.83 158.66L304.49 158.66L304.49 149.93L305.78 149.93L305.78 151.29L305.9 151.29C306.31 150.41 307.12 149.82 308.44 149.82C310.21 149.82 311.4 150.88 311.4 153.11L311.4 158.66L310.06 158.66L310.06 153.2C310.06 151.83 309.3 151.02 308.06 151.02ZM318.14 149.82C319.87 149.82 320.81 150.64 321.23 151.88L320.03 152.22C319.8 151.62 319.31 150.97 318.14 150.97C317.07 150.97 316.28 151.52 316.28 152.27C316.28 152.94 316.75 153.29 317.78 153.54L319.07 153.86C320.63 154.24 321.39 155.01 321.39 156.22C321.39 157.73 320.01 158.84 317.98 158.84C316.2 158.84 314.98 158.05 314.66 156.57L315.94 156.25C316.18 157.18 316.86 157.66 317.96 157.66C319.21 157.66 320.01 157.04 320.01 156.29C320.01 155.69 319.59 155.27 318.71 155.07L317.26 154.72C315.65 154.35 314.94 153.54 314.94 152.34C314.94 150.86 316.3 149.82 318.14 149.82ZM329.77 157.47C329.5 158.04 328.7 158.86 327.18 158.86C325.52 158.86 324.2 157.88 324.2 156.18C324.2 154.18 325.97 153.82 327.59 153.61C329.18 153.41 329.84 153.47 329.84 152.82L329.84 152.77C329.84 151.65 329.24 151 328 151C326.72 151 326.02 151.68 325.73 152.32L324.45 151.86C325.14 150.27 326.64 149.82 327.95 149.82C329.07 149.82 331.18 150.13 331.18 152.91L331.18 158.66L329.84 158.66L329.84 157.47L329.77 157.47ZM341.81 156.11C341.59 157.66 340.31 158.84 338.38 158.84C335.93 158.84 334.43 156.95 334.43 154.34C334.43 151.68 336 149.82 338.36 149.82C340.2 149.82 341.59 150.91 341.81 152.54L340.47 152.54C340.27 151.75 339.56 151.02 338.38 151.02C336.81 151.02 335.77 152.32 335.77 154.29C335.77 156.32 336.79 157.63 338.38 157.63C339.43 157.63 340.22 157.07 340.47 156.11L341.81 156.11ZM364.48 154.34C364.48 157.04 362.89 158.84 360.53 158.84C358.17 158.84 356.57 157.04 356.57 154.34C356.57 151.61 358.17 149.82 360.53 149.82C362.89 149.82 364.48 151.61 364.48 154.34ZM371.3 151.02C370.01 151.02 369.07 151.88 369.07 153.41L369.07 158.66L367.73 158.66L367.73 149.93L369.03 149.93L369.03 151.29L369.14 151.29C369.55 150.41 370.36 149.82 371.69 149.82C373.45 149.82 374.64 150.88 374.64 153.11L374.64 158.66L373.3 158.66L373.3 153.2C373.3 151.83 372.54 151.02 371.3 151.02ZM391.13 156.63C390.72 157.95 389.43 158.84 387.65 158.84C385.13 158.84 383.58 157.04 383.58 154.36C383.58 151.68 385.15 149.82 387.52 149.82C389.33 149.82 391.27 150.93 391.27 154.18L391.27 154.75L384.93 154.75C384.99 156.62 386.08 157.63 387.65 157.63C388.7 157.63 389.49 157.18 389.83 156.27L391.13 156.63ZM399.67 157.47C399.4 158.04 398.6 158.86 397.08 158.86C395.42 158.86 394.1 157.88 394.1 156.18C394.1 154.18 395.87 153.82 397.49 153.61C399.08 153.41 399.74 153.47 399.74 152.82L399.74 152.77C399.74 151.65 399.13 151 397.9 151C396.62 151 395.92 151.68 395.62 152.32L394.35 151.86C395.03 150.27 396.53 149.82 397.85 149.82C398.97 149.82 401.08 150.13 401.08 152.91L401.08 158.66L399.74 158.66L399.74 157.47L399.67 157.47ZM407.82 149.82C409.55 149.82 410.49 150.64 410.92 151.88L409.71 152.22C409.48 151.62 408.99 150.97 407.82 150.97C406.76 150.97 405.96 151.52 405.96 152.27C405.96 152.94 406.43 153.29 407.46 153.54L408.76 153.86C410.31 154.24 411.07 155.01 411.07 156.22C411.07 157.73 409.69 158.84 407.67 158.84C405.88 158.84 404.66 158.05 404.35 156.57L405.62 156.25C405.86 157.18 406.55 157.66 407.64 157.66C408.89 157.66 409.69 157.04 409.69 156.29C409.69 155.69 409.27 155.27 408.39 155.07L406.94 154.72C405.33 154.35 404.62 153.54 404.62 152.34C404.62 150.86 405.98 149.82 407.82 149.82ZM120.14 158.66L118.82 158.66L116.16 149.93L117.57 149.93L119.46 156.61L119.55 156.61L121.41 149.93L122.84 149.93L124.68 156.59L124.78 156.59L126.66 149.93L128.07 149.93L125.41 158.66L124.09 158.66L122.18 151.95L122.05 151.95L120.14 158.66ZM239.64 159.93C239.13 161.29 238.28 161.93 237.07 161.93C236.62 161.93 236.23 161.84 236.09 161.77L236.43 160.59C237.41 160.84 238.01 160.72 238.5 159.38L238.75 158.7L235.53 149.93L236.98 149.93L239.39 156.88L239.48 156.88L241.89 149.93L243.34 149.93L239.64 159.93ZM259.99 157.47C260.99 157.47 262.24 156.72 262.24 155.09L262.24 149.93L263.58 149.93L263.58 158.66L262.24 158.66L262.24 157.18L262.15 157.18C261.74 158.07 260.88 158.77 259.56 158.77C257.93 158.77 256.74 157.7 256.74 155.47L256.74 149.93L258.08 149.93L258.08 155.38C258.08 156.66 258.88 157.47 259.99 157.47ZM353.33 158.66L351.99 158.66L351.99 149.93L353.33 149.93L353.33 158.66ZM415.64 158.66L414.3 158.66L414.3 149.93L415.64 149.93L415.64 158.66ZM427.72 159.93C427.21 161.29 426.36 161.93 425.15 161.93C424.7 161.93 424.31 161.84 424.17 161.77L424.51 160.59C425.49 160.84 426.1 160.72 426.58 159.38L426.83 158.7L423.61 149.93L425.06 149.93L427.47 156.88L427.56 156.88L429.97 149.93L431.42 149.93L427.72 159.93ZM107.33 154.34C107.33 156.09 108.14 157.63 109.94 157.63C111.73 157.63 112.55 156.09 112.55 154.34C112.55 152.59 111.73 151.02 109.94 151.02C108.14 151.02 107.33 152.59 107.33 154.34ZM213.72 154.34C213.72 156.09 214.54 157.63 216.33 157.63C218.13 157.63 218.95 156.09 218.95 154.34C218.95 152.59 218.13 151.02 216.33 151.02C214.54 151.02 213.72 152.59 213.72 154.34ZM246.93 154.34C246.93 156.09 247.75 157.63 249.54 157.63C251.34 157.63 252.16 156.09 252.16 154.34C252.16 152.59 251.34 151.02 249.54 151.02C247.75 151.02 246.93 152.59 246.93 154.34ZM357.92 154.34C357.92 156.09 358.73 157.63 360.53 157.63C362.32 157.63 363.14 156.09 363.14 154.34C363.14 152.59 362.32 151.02 360.53 151.02C358.73 151.02 357.92 152.59 357.92 154.34ZM387.52 151.02C385.98 151.02 385.02 152.23 384.93 153.59L389.9 153.59C389.9 152.11 388.97 151.02 387.52 151.02ZM151.85 156.25C151.85 157.18 152.62 157.66 153.69 157.66C155.28 157.66 156.14 156.59 156.14 155.5L156.14 154.27C155.91 154.54 154.39 154.7 153.82 154.77C152.78 154.91 151.85 155.22 151.85 156.25ZM187.81 156.25C187.81 157.18 188.58 157.66 189.65 157.66C191.24 157.66 192.1 156.59 192.1 155.5L192.1 154.27C191.87 154.54 190.35 154.7 189.78 154.77C188.74 154.91 187.81 155.22 187.81 156.25ZM295.2 156.25C295.2 157.18 295.97 157.66 297.04 157.66C298.63 157.66 299.49 156.59 299.49 155.5L299.49 154.27C299.26 154.54 297.74 154.7 297.17 154.77C296.13 154.91 295.2 155.22 295.2 156.25ZM325.55 156.25C325.55 157.18 326.32 157.66 327.39 157.66C328.98 157.66 329.84 156.59 329.84 155.5L329.84 154.27C329.61 154.54 328.09 154.7 327.52 154.77C326.48 154.91 325.55 155.22 325.55 156.25ZM395.44 156.25C395.44 157.18 396.22 157.66 397.28 157.66C398.87 157.66 399.74 156.59 399.74 155.5L399.74 154.27C399.51 154.54 397.99 154.7 397.42 154.77C396.37 154.91 395.44 155.22 395.44 156.25ZM435.85 157.72C435.85 158.29 435.39 158.75 434.83 158.75C434.27 158.75 433.81 158.29 433.81 157.72C433.81 157.16 434.27 156.7 434.83 156.7C435.39 156.7 435.85 157.16 435.85 157.72Z" fill="#756F6F" fill-opacity="1.000000" fill-rule="evenodd"/>
	</g>
</svg>
