<svg width="434.931122" height="264.000000" viewBox="0 0 434.931 264" fill="none" xmlns="http://www.w3.org/2000/svg" xmlns:xlink="http://www.w3.org/1999/xlink">
	<desc>
			Created with Pixso.
	</desc>
	<defs>
		<filter id="filter_19_30_dd" x="0.000000" y="0.000000" width="380.000000" height="264.000000" filterUnits="userSpaceOnUse" color-interpolation-filters="sRGB">
			<feFlood flood-opacity="0" result="BackgroundImageFix"/>
			<feColorMatrix in="SourceAlpha" type="matrix" values="0 0 0 0 0 0 0 0 0 0 0 0 0 0 0 0 0 0 127 0" result="hardAlpha"/>
			<feOffset dx="7" dy="10"/>
			<feGaussianBlur stdDeviation="16.6667"/>
			<feComposite in2="hardAlpha" operator="out" k2="-1" k3="1"/>
			<feColorMatrix type="matrix" values="0 0 0 0 0.9098 0 0 0 0 0.88627 0 0 0 0 0.94118 0 0 0 1 0"/>
			<feBlend mode="normal" in2="BackgroundImageFix" result="effect_dropShadow_1"/>
			<feBlend mode="normal" in="SourceGraphic" in2="effect_dropShadow_1" result="shape"/>
		</filter>
		<filter id="filter_39_1196_dd" x="0.000000" y="0.000000" width="104.000000" height="264.000000" filterUnits="userSpaceOnUse" color-interpolation-filters="sRGB">
			<feFlood flood-opacity="0" result="BackgroundImageFix"/>
			<feColorMatrix in="SourceAlpha" type="matrix" values="0 0 0 0 0 0 0 0 0 0 0 0 0 0 0 0 0 0 127 0" result="hardAlpha"/>
			<feOffset dx="7" dy="10"/>
			<feGaussianBlur stdDeviation="16.6667"/>
			<feComposite in2="hardAlpha" operator="out" k2="-1" k3="1"/>
			<feColorMatrix type="matrix" values="0 0 0 0 0.9098 0 0 0 0 0.88627 0 0 0 0 0.94118 0 0 0 1 0"/>
			<feBlend mode="normal" in2="BackgroundImageFix" result="effect_dropShadow_1"/>
			<feBlend mode="normal" in="SourceGraphic" in2="effect_dropShadow_1" result="shape"/>
		</filter>
		<clipPath id="clip46_1216">
			<rect id="analytics-outline 1" width="24.000000" height="24.000000" transform="translate(91.000000 65.662109)" fill="white" fill-opacity="0"/>
		</clipPath>
		<linearGradient x1="42.999680" y1="49.909668" x2="46.999466" y2="231.329803" id="paint_linear_39_1196_0" gradientUnits="userSpaceOnUse">
			<stop stop-color="#00B5D0"/>
			<stop offset="1.000000" stop-color="#5C0E62"/>
		</linearGradient>
	</defs>
	<g filter="url(#filter_19_30_dd)">
		<rect id="Rectangle 4" x="43.000000" y="40.000000" rx="4.000000" width="280.000000" height="164.000000" fill="#FFFFFF" fill-opacity="1.000000"/>
	</g>
	<g filter="url(#filter_39_1196_dd)">
		<path id="Rectangle 3" d="M43 44C43 41.79 44.79 40 47 40L47 204C44.79 204 43 202.2 43 200L43 44Z" fill="url(#paint_linear_39_1196_0)" fill-opacity="1.000000" fill-rule="evenodd"/>
	</g>
	<rect id="analytics-outline 1" width="24.000000" height="24.000000" transform="translate(91.000000 65.662109)" fill="#FFFFFF" fill-opacity="0"/>
	<g clip-path="url(#clip46_1216)">
		<path id="Vector" d="M111.25 74.66L107.12 78.78L111.25 74.66ZM104.87 78.78L101.87 75.78L104.87 78.78ZM94.75 80.66L99.62 75.78" stroke="#591567" stroke-opacity="1.000000" stroke-width="1.522324" stroke-linejoin="round" stroke-linecap="round"/>
		<path id="Vector" d="M112.37 74.66C111.75 74.66 111.25 74.15 111.25 73.53C111.25 72.91 111.75 72.41 112.37 72.41C112.99 72.41 113.5 72.91 113.5 73.53C113.5 74.15 112.99 74.66 112.37 74.66Z" stroke="#591567" stroke-opacity="1.000000" stroke-width="1.522324" stroke-linejoin="round"/>
		<path id="Vector" d="M106 81.03C105.37 81.03 104.87 80.53 104.87 79.91C104.87 79.29 105.37 78.78 106 78.78C106.62 78.78 107.12 79.29 107.12 79.91C107.12 80.53 106.62 81.03 106 81.03Z" stroke="#591567" stroke-opacity="1.000000" stroke-width="1.522324" stroke-linejoin="round"/>
		<path id="Vector" d="M100.75 75.78C100.12 75.78 99.62 75.28 99.62 74.66C99.62 74.04 100.12 73.53 100.75 73.53C101.37 73.53 101.87 74.04 101.87 74.66C101.87 75.28 101.37 75.78 100.75 75.78Z" stroke="#591567" stroke-opacity="1.000000" stroke-width="1.522324" stroke-linejoin="round"/>
		<path id="Vector" d="M93.62 82.91C93 82.91 92.5 82.4 92.5 81.78C92.5 81.16 93 80.66 93.62 80.66C94.24 80.66 94.75 81.16 94.75 81.78C94.75 82.4 94.24 82.91 93.62 82.91Z" stroke="#591567" stroke-opacity="1.000000" stroke-width="1.522324" stroke-linejoin="round"/>
	</g>
	<path id="Use You Connect" d="M198.98 97.44C202.69 97.44 205.48 99.56 205.92 103.26L202.5 103.26C202.25 101.5 200.91 100.43 199.06 100.43C196.58 100.43 194.96 102.33 194.96 105.66C194.96 109.08 196.61 110.89 199.03 110.89C200.84 110.89 202.19 109.9 202.5 108.19L205.92 108.21C205.56 111.15 203.08 113.88 198.98 113.88C194.7 113.88 191.53 110.88 191.53 105.66C191.53 100.42 194.75 97.44 198.98 97.44ZM102.27 107.76L102.27 97.66L105.65 97.66L105.65 108.05C105.65 111.55 102.99 113.88 99.02 113.88C95.03 113.88 92.39 111.55 92.39 108.05L92.39 97.66L95.77 97.66L95.77 107.76C95.77 109.59 97.06 110.91 99.02 110.91C100.99 110.91 102.27 109.59 102.27 107.76ZM147.46 108L141.62 97.66L145.41 97.66L149.06 104.55L149.22 104.55L152.86 97.66L156.66 97.66L150.82 108L150.82 113.66L147.46 113.66L147.46 108ZM284.63 101.66L286.89 101.66L286.89 104.16L284.63 104.16L284.63 109.97C284.63 110.89 285.09 111.14 285.75 111.14C286.07 111.14 286.42 111.06 286.58 111.03L287.1 113.51C286.77 113.62 286.16 113.79 285.3 113.82C282.89 113.92 281.29 112.76 281.3 110.41L281.3 104.16L279.66 104.16L279.66 101.66L281.3 101.66L281.3 98.78L284.63 98.78L284.63 101.66ZM114.13 101.5C117.16 101.5 118.94 102.87 119.23 105.08L116.19 105.27C116.02 104.49 115.33 103.86 114.18 103.86C113.15 103.86 112.34 104.33 112.34 105.05C112.34 105.63 112.75 106.01 113.87 106.25L116.04 106.69C118.37 107.16 119.5 108.21 119.51 109.94C119.5 112.3 117.27 113.89 114.16 113.89C110.98 113.89 109.03 112.48 108.72 110.18L111.99 110.01C112.2 110.99 112.99 111.49 114.17 111.49C115.33 111.49 116.11 110.99 116.12 110.27C116.11 109.67 115.64 109.29 114.59 109.08L112.51 108.67C110.16 108.2 109.03 107.04 109.04 105.24C109.03 102.92 111.05 101.5 114.13 101.5ZM133.4 110.22C132.93 112.45 130.93 113.89 127.96 113.89C124.26 113.89 122.01 111.51 122.01 107.71C122.01 104.01 124.29 101.5 127.83 101.5C131 101.5 133.47 103.52 133.47 107.59L133.47 108.51L125.29 108.51L125.29 108.52C125.29 110.31 126.35 111.41 128.02 111.41C129.12 111.41 129.98 110.93 130.32 110.02L133.4 110.22ZM168.15 107.71C168.15 111.4 165.89 113.89 162.25 113.89C158.61 113.89 156.34 111.4 156.34 107.71C156.34 103.98 158.61 101.5 162.25 101.5C165.89 101.5 168.15 103.98 168.15 107.71ZM220.5 107.71C220.5 111.4 218.24 113.89 214.6 113.89C210.96 113.89 208.69 111.4 208.69 107.71C208.69 103.98 210.96 101.5 214.6 101.5C218.24 101.5 220.5 103.98 220.5 107.71ZM229.15 104.27C227.81 104.27 226.89 105.17 226.88 106.72L226.88 113.66L223.55 113.66L223.55 101.66L226.73 101.66L226.73 103.77L226.87 103.77C227.4 102.38 228.69 101.5 230.48 101.5C232.97 101.5 234.62 103.22 234.62 106.01L234.62 113.66L231.29 113.66L231.29 106.61C231.3 105.14 230.49 104.27 229.15 104.27ZM243.71 104.27C242.37 104.27 241.45 105.17 241.44 106.72L241.44 113.66L238.11 113.66L238.11 101.66L241.29 101.66L241.29 103.77L241.43 103.77C241.96 102.38 243.25 101.5 245.03 101.5C247.53 101.5 249.18 103.22 249.18 106.01L249.18 113.66L245.85 113.66L245.85 106.61C245.86 105.14 245.05 104.27 243.71 104.27ZM263.58 110.22C263.11 112.45 261.11 113.89 258.14 113.89C254.44 113.89 252.19 111.51 252.19 107.71C252.19 104.01 254.48 101.5 258.01 101.5C261.18 101.5 263.65 103.52 263.65 107.59L263.65 108.51L255.47 108.51L255.47 108.52C255.47 110.31 256.53 111.41 258.2 111.41C259.3 111.41 260.16 110.93 260.5 110.02L263.58 110.22ZM277.48 109.26C277.32 112.02 275.32 113.89 272.12 113.89C268.43 113.89 266.22 111.35 266.22 107.71C266.22 104.03 268.47 101.5 272.11 101.5C275.24 101.5 277.34 103.32 277.48 106.1L274.34 106.1C274.16 104.9 273.38 104.1 272.16 104.1C270.62 104.1 269.6 105.39 269.6 107.66C269.6 109.96 270.61 111.26 272.16 111.26C273.3 111.26 274.14 110.54 274.34 109.26L277.48 109.26ZM176.61 111C177.8 111 178.91 110.16 178.9 108.55L178.9 101.66L182.23 101.66L182.23 113.66L179.03 113.66L179.03 111.48L178.91 111.48C178.37 112.88 177.07 113.81 175.27 113.81C172.85 113.81 171.21 112.11 171.2 109.3L171.2 101.66L174.53 101.66L174.53 108.71C174.54 110.12 175.36 111 176.61 111ZM127.88 103.98C126.4 103.98 125.37 105.08 125.29 106.44L130.34 106.44C130.32 105.02 129.33 103.98 127.88 103.98ZM258.06 103.98C256.59 103.98 255.55 105.08 255.47 106.44L260.52 106.44C260.51 105.02 259.51 103.98 258.06 103.98ZM159.72 107.68C159.72 109.77 160.58 111.32 162.26 111.32C163.91 111.32 164.77 109.77 164.77 107.68C164.77 105.58 163.91 104.04 162.26 104.04C160.58 104.04 159.72 105.58 159.72 107.68ZM212.07 107.68C212.07 109.77 212.93 111.32 214.61 111.32C216.26 111.32 217.12 109.77 217.12 107.68C217.12 105.58 216.26 104.04 214.61 104.04C212.93 104.04 212.07 105.58 212.07 107.68Z" fill="#5C5E6E" fill-opacity="1.000000" fill-rule="evenodd"/>
	<g opacity="0.700000">
		<path id="Now track all of your transaction easily." d="M224.54 134.93L226.5 134.93L226.5 136.07L224.54 136.07L224.54 143.66L223.2 143.66L223.2 136.07L221.79 136.07L221.79 134.93L223.2 134.93L223.2 133.72C223.2 132.22 224.41 131.47 225.66 131.47C226.32 131.47 226.72 131.61 226.93 131.7L226.54 132.86C226.41 132.82 226.18 132.72 225.79 132.72C224.91 132.72 224.54 133.18 224.54 134.04L224.54 134.93ZM352.7 132.57C352.7 133.07 352.27 133.47 351.75 133.47C351.22 133.47 350.79 133.07 350.79 132.57C350.79 132.07 351.22 131.66 351.75 131.66C352.27 131.66 352.7 132.07 352.7 132.57ZM415.01 132.57C415.01 133.07 414.58 133.47 414.06 133.47C413.53 133.47 413.1 133.07 413.1 132.57C413.1 132.07 413.53 131.66 414.06 131.66C414.58 131.66 415.01 132.07 415.01 132.57ZM100.25 132.02L101.63 132.02L101.63 143.66L100.27 143.66L93.93 134.52L93.81 134.52L93.81 143.66L92.41 143.66L92.41 132.02L93.77 132.02L100.13 141.18L100.25 141.18L100.25 132.02ZM171.68 143.66L170.34 143.66L170.34 132.02L171.68 132.02L171.68 138.82L171.84 138.82L175.67 134.93L177.32 134.93L173.63 138.66L177.59 143.66L175.89 143.66L172.62 139.52L171.68 140.39L171.68 143.66ZM196.17 132.02L197.51 132.02L197.51 143.66L196.17 143.66L196.17 132.02ZM201.17 132.02L202.51 132.02L202.51 143.66L201.17 143.66L201.17 132.02ZM418.37 132.02L419.71 132.02L419.71 143.66L418.37 143.66L418.37 132.02ZM137.75 134.93L139.61 134.93L139.61 136.07L137.75 136.07L137.75 141.16C137.75 142.29 138.32 142.47 138.91 142.47C139.2 142.47 139.39 142.43 139.5 142.41L139.77 143.61C139.59 143.68 139.27 143.77 138.77 143.77C137.64 143.77 136.41 143.04 136.41 141.52L136.41 136.07L135.09 136.07L135.09 134.93L136.41 134.93L136.41 132.84L137.75 132.84L137.75 134.93ZM281.1 134.93L282.96 134.93L282.96 136.07L281.1 136.07L281.1 141.16C281.1 142.29 281.67 142.47 282.26 142.47C282.55 142.47 282.74 142.43 282.85 142.41L283.12 143.61C282.94 143.68 282.62 143.77 282.12 143.77C280.99 143.77 279.76 143.04 279.76 141.52L279.76 136.07L278.44 136.07L278.44 134.93L279.76 134.93L279.76 132.84L281.1 132.84L281.1 134.93ZM345.98 134.93L347.84 134.93L347.84 136.07L345.98 136.07L345.98 141.16C345.98 142.29 346.54 142.47 347.13 142.47C347.43 142.47 347.62 142.43 347.73 142.41L348 143.61C347.82 143.68 347.5 143.77 347 143.77C345.87 143.77 344.63 143.04 344.63 141.52L344.63 136.07L343.32 136.07L343.32 134.93L344.63 134.93L344.63 132.84L345.98 132.84L345.98 134.93ZM144.17 143.66L142.84 143.66L142.84 134.93L144.13 134.93L144.13 136.25L144.22 136.25C144.54 135.38 145.45 134.79 146.5 134.79C146.7 134.79 147.05 134.81 147.2 134.82L147.2 136.18C147.11 136.16 146.74 136.09 146.38 136.09C145.11 136.09 144.17 136.95 144.17 138.13L144.17 143.66ZM267.65 143.66L266.31 143.66L266.31 134.93L267.61 134.93L267.61 136.25L267.7 136.25C268.02 135.38 268.93 134.79 269.97 134.79C270.17 134.79 270.52 134.81 270.68 134.82L270.68 136.18C270.59 136.16 270.22 136.09 269.86 136.09C268.59 136.09 267.65 136.95 267.65 138.13L267.65 143.66ZM287.53 143.66L286.19 143.66L286.19 134.93L287.48 134.93L287.48 136.25L287.57 136.25C287.89 135.38 288.8 134.79 289.85 134.79C290.04 134.79 290.4 134.81 290.55 134.82L290.55 136.18C290.46 136.16 290.09 136.09 289.73 136.09C288.46 136.09 287.53 136.95 287.53 138.13L287.53 143.66ZM112.97 139.34C112.97 142.04 111.38 143.84 109.01 143.84C106.65 143.84 105.06 142.04 105.06 139.34C105.06 136.61 106.65 134.82 109.01 134.82C111.38 134.82 112.97 136.61 112.97 139.34ZM155.15 142.47C154.88 143.04 154.08 143.86 152.56 143.86C150.9 143.86 149.58 142.88 149.58 141.18C149.58 139.18 151.35 138.82 152.97 138.61C154.56 138.41 155.22 138.47 155.22 137.82L155.22 137.77C155.22 136.65 154.61 136 153.38 136C152.1 136 151.4 136.68 151.1 137.32L149.83 136.86C150.51 135.27 152.01 134.82 153.33 134.82C154.45 134.82 156.56 135.13 156.56 137.91L156.56 143.66L155.22 143.66L155.22 142.47L155.15 142.47ZM167.19 141.11C166.96 142.66 165.69 143.84 163.76 143.84C161.3 143.84 159.8 141.95 159.8 139.34C159.8 136.68 161.37 134.82 163.74 134.82C165.58 134.82 166.96 135.91 167.19 137.54L165.85 137.54C165.65 136.75 164.94 136.02 163.76 136.02C162.19 136.02 161.15 137.32 161.15 139.29C161.15 141.32 162.17 142.63 163.76 142.63C164.8 142.63 165.6 142.07 165.85 141.11L167.19 141.11ZM191.11 142.47C190.84 143.04 190.04 143.86 188.52 143.86C186.86 143.86 185.54 142.88 185.54 141.18C185.54 139.18 187.31 138.82 188.93 138.61C190.52 138.41 191.18 138.47 191.18 137.82L191.18 137.77C191.18 136.65 190.57 136 189.34 136C188.06 136 187.36 136.68 187.06 137.32L185.79 136.86C186.47 135.27 187.97 134.82 189.29 134.82C190.41 134.82 192.52 135.13 192.52 137.91L192.52 143.66L191.18 143.66L191.18 142.47L191.11 142.47ZM219.36 139.34C219.36 142.04 217.77 143.84 215.41 143.84C213.05 143.84 211.45 142.04 211.45 139.34C211.45 136.61 213.05 134.82 215.41 134.82C217.77 134.82 219.36 136.61 219.36 139.34ZM252.57 139.34C252.57 142.04 250.98 143.84 248.62 143.84C246.26 143.84 244.66 142.04 244.66 139.34C244.66 136.61 246.26 134.82 248.62 134.82C250.98 134.82 252.57 136.61 252.57 139.34ZM298.5 142.47C298.23 143.04 297.43 143.86 295.91 143.86C294.25 143.86 292.93 142.88 292.93 141.18C292.93 139.18 294.7 138.82 296.32 138.61C297.91 138.41 298.57 138.47 298.57 137.82L298.57 137.77C298.57 136.65 297.96 136 296.73 136C295.45 136 294.75 136.68 294.45 137.32L293.18 136.86C293.86 135.27 295.36 134.82 296.68 134.82C297.8 134.82 299.91 135.13 299.91 137.91L299.91 143.66L298.57 143.66L298.57 142.47L298.5 142.47ZM307.13 136.02C305.85 136.02 304.9 136.88 304.9 138.41L304.9 143.66L303.56 143.66L303.56 134.93L304.86 134.93L304.86 136.29L304.97 136.29C305.38 135.41 306.2 134.82 307.52 134.82C309.29 134.82 310.47 135.88 310.47 138.11L310.47 143.66L309.13 143.66L309.13 138.2C309.13 136.83 308.38 136.02 307.13 136.02ZM317.22 134.82C318.95 134.82 319.89 135.64 320.31 136.88L319.1 137.22C318.87 136.62 318.39 135.97 317.22 135.97C316.15 135.97 315.35 136.52 315.35 137.27C315.35 137.94 315.82 138.29 316.85 138.54L318.15 138.86C319.71 139.24 320.47 140.01 320.47 141.22C320.47 142.73 319.09 143.84 317.06 143.84C315.27 143.84 314.05 143.05 313.74 141.57L315.01 141.25C315.25 142.18 315.94 142.66 317.04 142.66C318.29 142.66 319.08 142.04 319.08 141.29C319.08 140.69 318.67 140.27 317.79 140.07L316.33 139.72C314.73 139.35 314.01 138.54 314.01 137.34C314.01 135.86 315.38 134.82 317.22 134.82ZM328.85 142.47C328.58 143.04 327.78 143.86 326.26 143.86C324.6 143.86 323.28 142.88 323.28 141.18C323.28 139.18 325.05 138.82 326.67 138.61C328.26 138.41 328.92 138.47 328.92 137.82L328.92 137.77C328.92 136.65 328.31 136 327.08 136C325.8 136 325.1 136.68 324.8 137.32L323.53 136.86C324.21 135.27 325.71 134.82 327.03 134.82C328.15 134.82 330.26 135.13 330.26 137.91L330.26 143.66L328.92 143.66L328.92 142.47L328.85 142.47ZM340.89 141.11C340.66 142.66 339.39 143.84 337.46 143.84C335 143.84 333.5 141.95 333.5 139.34C333.5 136.68 335.07 134.82 337.44 134.82C339.28 134.82 340.66 135.91 340.89 137.54L339.55 137.54C339.35 136.75 338.64 136.02 337.46 136.02C335.89 136.02 334.85 137.32 334.85 139.29C334.85 141.32 335.87 142.63 337.46 142.63C338.5 142.63 339.3 142.07 339.55 141.11L340.89 141.11ZM363.56 139.34C363.56 142.04 361.97 143.84 359.61 143.84C357.24 143.84 355.65 142.04 355.65 139.34C355.65 136.61 357.24 134.82 359.61 134.82C361.97 134.82 363.56 136.61 363.56 139.34ZM370.37 136.02C369.09 136.02 368.14 136.88 368.14 138.41L368.14 143.66L366.8 143.66L366.8 134.93L368.1 134.93L368.1 136.29L368.21 136.29C368.62 135.41 369.44 134.82 370.76 134.82C372.53 134.82 373.71 135.88 373.71 138.11L373.71 143.66L372.37 143.66L372.37 138.2C372.37 136.83 371.62 136.02 370.37 136.02ZM390.2 141.63C389.79 142.95 388.5 143.84 386.73 143.84C384.2 143.84 382.66 142.04 382.66 139.36C382.66 136.68 384.23 134.82 386.59 134.82C388.41 134.82 390.34 135.93 390.34 139.18L390.34 139.75L384 139.75C384.07 141.62 385.15 142.63 386.73 142.63C387.78 142.63 388.57 142.18 388.91 141.27L390.2 141.63ZM398.75 142.47C398.47 143.04 397.68 143.86 396.16 143.86C394.5 143.86 393.18 142.88 393.18 141.18C393.18 139.18 394.95 138.82 396.56 138.61C398.16 138.41 398.81 138.47 398.81 137.82L398.81 137.77C398.81 136.65 398.21 136 396.97 136C395.7 136 395 136.68 394.7 137.32L393.43 136.86C394.11 135.27 395.61 134.82 396.93 134.82C398.04 134.82 400.16 135.13 400.16 137.91L400.16 143.66L398.81 143.66L398.81 142.47L398.75 142.47ZM406.9 134.82C408.63 134.82 409.57 135.64 409.99 136.88L408.78 137.22C408.55 136.62 408.07 135.97 406.9 135.97C405.83 135.97 405.03 136.52 405.03 137.27C405.03 137.94 405.5 138.29 406.53 138.54L407.83 138.86C409.39 139.24 410.15 140.01 410.15 141.22C410.15 142.73 408.77 143.84 406.74 143.84C404.96 143.84 403.73 143.05 403.42 141.57L404.7 141.25C404.93 142.18 405.62 142.66 406.72 142.66C407.97 142.66 408.77 142.04 408.77 141.29C408.77 140.69 408.35 140.27 407.47 140.07L406.02 139.72C404.41 139.35 403.7 138.54 403.7 137.34C403.7 135.86 405.06 134.82 406.9 134.82ZM119.21 143.66L117.89 143.66L115.24 134.93L116.64 134.93L118.53 141.61L118.62 141.61L120.49 134.93L121.92 134.93L123.76 141.59L123.85 141.59L125.74 134.93L127.14 134.93L124.49 143.66L123.17 143.66L121.26 136.95L121.12 136.95L119.21 143.66ZM238.71 144.93C238.21 146.29 237.36 146.93 236.14 146.93C235.69 146.93 235.3 146.84 235.17 146.77L235.51 145.59C236.49 145.84 237.09 145.72 237.58 144.38L237.83 143.7L234.6 134.93L236.05 134.93L238.46 141.88L238.55 141.88L240.96 134.93L242.42 134.93L238.71 144.93ZM259.07 142.47C260.07 142.47 261.32 141.72 261.32 140.09L261.32 134.93L262.66 134.93L262.66 143.66L261.32 143.66L261.32 142.18L261.23 142.18C260.82 143.07 259.95 143.77 258.64 143.77C257 143.77 255.82 142.7 255.82 140.47L255.82 134.93L257.16 134.93L257.16 140.38C257.16 141.66 257.95 142.47 259.07 142.47ZM352.4 143.66L351.06 143.66L351.06 134.93L352.4 134.93L352.4 143.66ZM414.71 143.66L413.37 143.66L413.37 134.93L414.71 134.93L414.71 143.66ZM426.8 144.93C426.29 146.29 425.44 146.93 424.23 146.93C423.77 146.93 423.39 146.84 423.25 146.77L423.59 145.59C424.57 145.84 425.17 145.72 425.66 144.38L425.91 143.7L422.68 134.93L424.14 134.93L426.55 141.88L426.64 141.88L429.05 134.93L430.5 134.93L426.8 144.93ZM106.4 139.34C106.4 141.09 107.22 142.63 109.01 142.63C110.81 142.63 111.63 141.09 111.63 139.34C111.63 137.59 110.81 136.02 109.01 136.02C107.22 136.02 106.4 137.59 106.4 139.34ZM212.8 139.34C212.8 141.09 213.61 142.63 215.41 142.63C217.2 142.63 218.02 141.09 218.02 139.34C218.02 137.59 217.2 136.02 215.41 136.02C213.61 136.02 212.8 137.59 212.8 139.34ZM246.01 139.34C246.01 141.09 246.82 142.63 248.62 142.63C250.41 142.63 251.23 141.09 251.23 139.34C251.23 137.59 250.41 136.02 248.62 136.02C246.82 136.02 246.01 137.59 246.01 139.34ZM356.99 139.34C356.99 141.09 357.81 142.63 359.61 142.63C361.4 142.63 362.22 141.09 362.22 139.34C362.22 137.59 361.4 136.02 359.61 136.02C357.81 136.02 356.99 137.59 356.99 139.34ZM386.59 136.02C385.06 136.02 384.09 137.23 384 138.59L388.98 138.59C388.98 137.11 388.04 136.02 386.59 136.02ZM150.92 141.25C150.92 142.18 151.7 142.66 152.76 142.66C154.35 142.66 155.22 141.59 155.22 140.5L155.22 139.27C154.99 139.54 153.47 139.7 152.9 139.77C151.85 139.91 150.92 140.22 150.92 141.25ZM186.88 141.25C186.88 142.18 187.66 142.66 188.72 142.66C190.31 142.66 191.18 141.59 191.18 140.5L191.18 139.27C190.95 139.54 189.43 139.7 188.86 139.77C187.81 139.91 186.88 140.22 186.88 141.25ZM294.27 141.25C294.27 142.18 295.05 142.66 296.11 142.66C297.7 142.66 298.57 141.59 298.57 140.5L298.57 139.27C298.34 139.54 296.82 139.7 296.25 139.77C295.2 139.91 294.27 140.22 294.27 141.25ZM324.62 141.25C324.62 142.18 325.4 142.66 326.46 142.66C328.05 142.66 328.92 141.59 328.92 140.5L328.92 139.27C328.69 139.54 327.17 139.7 326.6 139.77C325.55 139.91 324.62 140.22 324.62 141.25ZM394.52 141.25C394.52 142.18 395.29 142.66 396.36 142.66C397.95 142.66 398.81 141.59 398.81 140.5L398.81 139.27C398.59 139.54 397.06 139.7 396.5 139.77C395.45 139.91 394.52 140.22 394.52 141.25ZM434.93 142.72C434.93 143.29 434.47 143.75 433.9 143.75C433.34 143.75 432.88 143.29 432.88 142.72C432.88 142.16 433.34 141.7 433.9 141.7C434.47 141.7 434.93 142.16 434.93 142.72Z" fill="#756F6F" fill-opacity="1.000000" fill-rule="evenodd"/>
	</g>
</svg>
