<svg width="513.054199" height="255.000000" viewBox="0 0 513.054 255" fill="none" xmlns="http://www.w3.org/2000/svg" xmlns:xlink="http://www.w3.org/1999/xlink">
	<desc>
			Created with Pixso.
	</desc>
	<defs>
		<linearGradient x1="69.634903" y1="217.938965" x2="219.477417" y2="232.474487" id="paint_linear_19_26_0" gradientUnits="userSpaceOnUse">
			<stop stop-color="#00B5D0"/>
			<stop offset="1.000000" stop-color="#5C0E62"/>
		</linearGradient>
	</defs>
	<path id="Subtract" d="M83.94 72.27C90.4 41.79 85.14 21.68 81.77 15.52L81.76 15.5L81.75 15.47C80.38 12.21 77.22 7.69 72.23 4.8C67.53 2.09 61.18 0.81 53.08 3.42L53.08 3.43C23.56 13.41 8.94 28.18 5.35 34.21L5.34 34.24L5.32 34.26C3.21 37.1 0.93 42.12 1 47.89C1.06 53.32 3.2 59.46 9.6 65.1L9.6 65.1C33.22 84.9 53.33 89.62 60.33 89.53L60.36 89.53L60.38 89.53C63.9 89.84 69.36 89.17 74.27 86.13C78.44 83.55 82.23 79.24 84.08 72.3L83.94 72.27Z" fill="#FFFFFF" fill-opacity="1.000000" fill-rule="nonzero"/>
	<path id="Make &amp; Share Payments With Community" d="M221.91 60.18L221.01 60.18C220.72 56.2 217.77 53.36 213.27 53.36C208.83 53.36 205.55 56.13 205.55 59.95C205.55 62.9 207.51 64.92 211.68 66.2L214.98 67.22C220.01 68.77 222.3 71.03 222.3 74.61C222.3 79.17 218.55 82.45 213.05 82.45C207.73 82.45 204.24 79.46 203.96 75.18L204.86 75.18C205.15 78.94 208.24 81.54 213.05 81.54C218.05 81.54 221.4 78.72 221.4 74.61C221.4 71.49 219.45 69.59 214.76 68.13L211.46 67.11C206.88 65.68 204.64 63.31 204.64 59.95C204.64 55.66 208.3 52.45 213.27 52.45C218.26 52.45 221.63 55.69 221.91 60.18ZM181.49 79.09C179.56 81.15 176.67 82.4 173.83 82.4C169.22 82.4 165.65 78.99 165.65 74.72C165.65 72.11 166.95 70.18 170.65 67.34L172.06 66.27L171.78 65.91C169.11 62.56 167.69 60.86 167.69 58.65C167.69 55.34 170.53 52.5 173.88 52.5C177.18 52.5 179.62 55 179.62 58.41C179.62 60.75 178.43 62.56 175.47 64.9L173.36 66.47L181.81 77.15C182.84 75.58 183.56 73.63 183.94 71.43L184.84 71.54C184.48 73.83 183.56 76.17 182.4 77.9L185.65 82L184.5 82L181.87 78.66C181.75 78.81 181.62 78.96 181.49 79.09ZM50.54 82L50.54 52.9L51.34 52.9L63.21 80.63L63.33 80.63L75.2 52.9L76 52.9L76 82L75.09 82L75.09 55.75L74.97 55.75L63.72 82L62.81 82L51.56 55.75L51.45 55.75L51.45 82L50.54 82ZM110.16 82L109.26 82L109.26 52.9L110.16 52.9L110.16 71.54L110.27 71.54L121.86 60.18L123.17 60.18L113.61 69.58L123.51 82L122.32 82L112.98 70.21L110.16 72.96L110.16 82ZM238.39 60.8C234.54 60.8 231.75 63.53 231.75 67.34L231.75 82L230.84 82L230.84 52.9L231.75 52.9L231.75 63.65L231.86 63.65C232.89 61.37 235.39 59.9 238.39 59.9C242.77 59.9 245.84 62.96 245.84 67.34L245.84 82L244.94 82L244.94 67.34C244.94 63.47 242.26 60.8 238.39 60.8ZM172.46 65.34L172.77 65.75L174.9 64.15C177.65 62.02 178.71 60.47 178.71 58.41C178.71 55.52 176.67 53.41 173.88 53.41C171.05 53.41 168.59 55.86 168.59 58.65C168.59 60.52 169.8 62 172.46 65.34ZM98.79 77.56C97.42 80.52 94.76 82.45 91.46 82.45C87.88 82.45 84.81 80.18 84.81 76.09C84.81 73.13 86.35 70.8 93.05 70C96.06 69.66 98.9 69.33 98.9 67.62L98.9 66.31C98.9 62.96 96.46 60.75 92.71 60.75C89.64 60.75 87.2 62.16 86.29 64.61L85.43 64.27C86.46 61.54 89.3 59.84 92.71 59.84C97.14 59.84 99.81 62.62 99.81 66.31L99.81 82L98.9 82L98.9 77.56L98.79 77.56ZM145.17 78.13C144.2 79.78 141.86 82.45 137.61 82.45C131.89 82.45 128.13 77.56 128.13 71.15C128.13 64.72 132 59.84 137.16 59.84C142.23 59.84 146.08 64.53 146.08 70.18L146.08 71.09L129.03 71.09C129.04 76.78 132.13 81.54 137.61 81.54C141.63 81.54 143.63 78.93 144.44 77.62L145.17 78.13ZM267.96 77.56C266.59 80.52 263.92 82.45 260.62 82.45C257.05 82.45 253.97 80.18 253.97 76.09C253.97 73.13 255.51 70.8 262.21 70C265.22 69.66 268.06 69.33 268.06 67.62L268.06 66.31C268.06 62.96 265.62 60.75 261.87 60.75C258.8 60.75 256.36 62.16 255.46 64.61L254.6 64.27C255.62 61.54 258.46 59.84 261.87 59.84C266.3 59.84 268.97 62.62 268.97 66.31L268.97 82L268.06 82L268.06 77.56L267.96 77.56ZM308.08 78.13C307.11 79.78 304.77 82.45 300.52 82.45C294.8 82.45 291.04 77.56 291.04 71.15C291.04 64.72 294.92 59.84 300.07 59.84C305.14 59.84 308.99 64.53 308.99 70.18L308.99 71.09L291.95 71.09C291.96 76.78 295.04 81.54 300.52 81.54C304.55 81.54 306.55 78.93 307.35 77.62L308.08 78.13ZM279.33 82L278.42 82L278.42 60.18L279.33 60.18L279.33 63.65L279.44 63.65C280.46 61.37 282.96 59.9 285.97 59.9L286.43 59.9L286.43 60.8L285.97 60.8C282.11 60.8 279.33 63.53 279.33 67.34L279.33 82ZM137.16 60.75C132.87 60.75 129.45 64.75 129.06 70.18L145.17 70.18C145.17 64.93 141.57 60.75 137.16 60.75ZM300.07 60.75C295.79 60.75 292.36 64.75 291.98 70.18L308.08 70.18C308.08 64.93 304.49 60.75 300.07 60.75ZM173.83 81.49C177.03 81.41 179.52 80.09 181.27 77.89L172.65 67L171.21 68.08C167.74 70.75 166.55 72.4 166.55 74.72C166.55 78.47 169.74 81.43 173.83 81.49ZM85.72 76.09C85.72 79.38 88.22 81.54 91.46 81.54C95.61 81.54 98.9 77.96 98.9 72.68L98.9 69.38C97.82 70.18 95.89 70.58 93.39 70.86C87.54 71.54 85.72 73.3 85.72 76.09ZM254.89 76.09C254.89 79.38 257.39 81.54 260.62 81.54C264.77 81.54 268.06 77.96 268.06 72.68L268.06 69.38C266.99 70.18 265.05 70.58 262.55 70.86C256.71 71.54 254.89 73.3 254.89 76.09ZM161.83 103.5C168.68 103.5 172.26 108.85 172.98 113L172.01 113C171.3 109.13 167.77 104.41 161.83 104.41C155.87 104.41 150.7 109.41 150.7 118.45C150.7 127.6 155.87 132.49 161.83 132.49C167.77 132.49 171.3 127.83 172.01 123.9L172.98 123.9C172.26 128 168.68 133.39 161.83 133.39C154.68 133.39 149.79 127.37 149.79 118.45C149.79 109.53 154.68 103.5 161.83 103.5ZM56.4 133L55.15 133L47.13 103.9L48.09 103.9L55.71 131.58L55.83 131.58L63.21 103.9L64.46 103.9L71.84 131.58L71.96 131.58L79.58 103.9L80.54 103.9L72.53 133L71.28 133L63.9 105.33L63.78 105.33L56.4 133ZM121.13 111.8C117.27 111.8 114.49 114.53 114.49 118.34L114.49 133L113.58 133L113.58 103.9L114.49 103.9L114.49 114.65L114.6 114.65C115.62 112.37 118.12 110.9 121.13 110.9C125.51 110.9 128.58 113.96 128.58 118.34L128.58 133L127.67 133L127.67 118.34C127.67 114.47 125 111.8 121.13 111.8ZM88.62 106.29C88.62 106.78 88.21 107.2 87.71 107.2C87.21 107.2 86.8 106.78 86.8 106.29C86.8 105.8 87.21 105.38 87.71 105.38C88.21 105.38 88.62 105.8 88.62 106.29ZM326.21 106.29C326.21 106.78 325.8 107.2 325.3 107.2C324.8 107.2 324.39 106.78 324.39 106.29C324.39 105.8 324.8 105.38 325.3 105.38C325.8 105.38 326.21 105.8 326.21 106.29ZM99.87 111.18L104.42 111.18L104.42 112.09L99.87 112.09L99.87 128.39C99.87 130.93 101.8 132.49 103.97 132.49C104.52 132.49 104.95 132.38 105.45 132.2L105.73 133.05C105.16 133.27 104.65 133.39 103.97 133.39C101.28 133.39 98.97 131.46 98.97 128.39L98.97 112.09L95.78 112.09L95.78 111.18L98.97 111.18L98.97 105.95L99.87 105.95L99.87 111.18ZM337.46 111.18L342.02 111.18L342.02 112.09L337.46 112.09L337.46 128.39C337.46 130.93 339.39 132.49 341.56 132.49C342.11 132.49 342.54 132.38 343.04 132.2L343.32 133.05C342.75 133.27 342.24 133.39 341.56 133.39C338.87 133.39 336.56 131.46 336.56 128.39L336.56 112.09L333.37 112.09L333.37 111.18L336.56 111.18L336.56 105.95L337.46 105.95L337.46 111.18ZM198.04 122.15C198.04 128.58 194.14 133.45 189.01 133.45C183.86 133.45 179.97 128.58 179.97 122.15C179.97 115.71 183.86 110.84 189.01 110.84C194.13 110.84 198.04 115.72 198.04 122.15ZM206.97 133L206.06 133L206.06 111.18L206.97 111.18L206.97 114.41L207.08 114.41C207.88 112.3 210.04 110.9 212.94 110.9C216.23 110.9 218.16 112.65 218.9 115.38L219.01 115.38C219.72 112.65 222.03 110.9 225.32 110.9C229.7 110.9 231.74 113.96 231.74 118.34L231.74 133L230.83 133L230.83 118.34C230.83 114.47 229.19 111.8 225.32 111.8C221.45 111.8 219.35 114.53 219.35 118.34L219.35 133L218.45 133L218.45 118.34C218.45 114.47 216.8 111.8 212.94 111.8C209.07 111.8 206.97 114.53 206.97 118.34L206.97 133ZM241.98 133L241.07 133L241.07 111.18L241.98 111.18L241.98 114.41L242.09 114.41C242.89 112.3 245.05 110.9 247.95 110.9C251.24 110.9 253.17 112.65 253.91 115.38L254.02 115.38C254.73 112.65 257.04 110.9 260.33 110.9C264.7 110.9 266.75 113.96 266.75 118.34L266.75 133L265.84 133L265.84 118.34C265.84 114.47 264.2 111.8 260.33 111.8C256.46 111.8 254.36 114.53 254.36 118.34L254.36 133L253.45 133L253.45 118.34C253.45 114.47 251.8 111.8 247.95 111.8C244.08 111.8 241.98 114.53 241.98 118.34L241.98 133ZM307.96 111.8C304.1 111.8 301.32 114.53 301.32 118.34L301.32 133L300.41 133L300.41 111.18L301.32 111.18L301.32 114.65L301.42 114.65C302.45 112.37 304.95 110.9 307.96 110.9C312.33 110.9 315.41 113.96 315.41 118.34L315.41 133L314.5 133L314.5 118.34C314.5 114.47 311.82 111.8 307.96 111.8ZM88.16 133L87.25 133L87.25 111.18L88.16 111.18L88.16 133ZM283.52 132.37C287.38 132.37 290.17 129.64 290.17 125.84L290.17 111.18L291.08 111.18L291.08 133L290.17 133L290.17 129.53L290.06 129.53C289.03 131.8 286.53 133.28 283.52 133.28C279.15 133.28 276.08 130.21 276.08 125.84L276.08 111.18L276.99 111.18L276.99 125.84C276.99 129.7 279.66 132.37 283.52 132.37ZM325.75 133L324.84 133L324.84 111.18L325.75 111.18L325.75 133ZM356.54 136.97C355.56 139.71 353.84 141.18 351.71 141.18C350.97 141.18 350.12 140.97 349.26 140.61L349.61 139.81C352.42 141.02 354.51 139.9 355.69 136.63L356.85 133.39L348.89 111.18L349.86 111.18L357.25 131.86L357.36 131.86L364.75 111.18L365.72 111.18L356.54 136.97ZM180.88 122.15C180.88 128.06 184.38 132.54 189.01 132.54C193.63 132.54 197.13 128.06 197.13 122.15C197.13 116.24 193.62 111.75 189.01 111.75C184.41 111.75 180.88 116.25 180.88 122.15Z" fill="#857885" fill-opacity="1.000000" fill-rule="evenodd"/>
	<path id="Make &amp; Share Payments With Community" d="M331.46 82L330.54 82L330.54 52.9L339.07 52.9C343.96 52.9 347.42 56.44 347.42 61.43C347.42 66.38 343.96 69.9 339.07 69.9L331.46 69.9L331.46 82ZM331.46 53.81L331.46 68.99L339.07 68.99C343.43 68.99 346.51 65.86 346.51 61.43C346.51 56.97 343.43 53.81 339.07 53.81L331.46 53.81ZM486.96 60.18L491.51 60.18L491.51 61.09L486.96 61.09L486.96 77.4C486.96 79.93 488.88 81.49 491.05 81.49C491.61 81.49 492.04 81.38 492.54 81.2L492.82 82.05C492.24 82.27 491.74 82.4 491.05 82.4C488.37 82.4 486.05 80.46 486.05 77.4L486.05 61.09L482.87 61.09L482.87 60.18L486.05 60.18L486.05 54.95L486.96 54.95L486.96 60.18ZM368.51 77.56C367.14 80.52 364.48 82.45 361.18 82.45C357.6 82.45 354.53 80.18 354.53 76.09C354.53 73.13 356.07 70.8 362.77 70C365.78 69.66 368.62 69.33 368.62 67.62L368.62 66.31C368.62 62.96 366.18 60.75 362.43 60.75C359.36 60.75 356.92 62.16 356.01 64.61L355.15 64.27C356.18 61.54 359.02 59.84 362.43 59.84C366.86 59.84 369.53 62.62 369.53 66.31L369.53 82L368.62 82L368.62 77.56L368.51 77.56ZM451.43 78.13C450.46 79.78 448.12 82.45 443.87 82.45C438.15 82.45 434.39 77.56 434.39 71.15C434.39 64.72 438.27 59.84 443.42 59.84C448.49 59.84 452.34 64.53 452.34 70.18L452.34 71.09L435.3 71.09C435.31 76.78 438.39 81.54 443.87 81.54C447.9 81.54 449.9 78.93 450.7 77.62L451.43 78.13ZM506.17 59.84C509.54 59.84 511.82 61.52 512.88 64.78L511.98 65C511.08 62.16 509.17 60.75 506.17 60.75C502.7 60.75 500.33 62.68 500.33 65.58C500.33 67.86 501.79 69.44 504.76 70.18L508.17 71.03C511.36 71.83 513.05 73.8 513.05 76.49C513.05 80.05 510.05 82.45 505.78 82.45C501.9 82.45 499.36 80.47 498.62 77L499.53 76.77C500.17 79.87 502.32 81.54 505.78 81.54C509.57 81.54 512.14 79.52 512.14 76.49C512.14 74.22 510.74 72.63 507.94 71.94L504.53 71.09C501.17 70.25 499.42 68.3 499.42 65.58C499.42 62.15 502.2 59.84 506.17 59.84ZM401.6 82L400.69 82L400.69 60.18L401.6 60.18L401.6 63.41L401.71 63.41C402.51 61.3 404.66 59.9 407.57 59.9C410.86 59.9 412.79 61.65 413.53 64.38L413.64 64.38C414.35 61.65 416.66 59.9 419.95 59.9C424.32 59.9 426.36 62.96 426.36 67.34L426.36 82L425.46 82L425.46 67.34C425.46 63.47 423.82 60.8 419.95 60.8C416.08 60.8 413.98 63.53 413.98 67.34L413.98 82L413.07 82L413.07 67.34C413.07 63.47 411.42 60.8 407.57 60.8C403.7 60.8 401.6 63.53 401.6 67.34L401.6 82ZM467.92 60.8C464.06 60.8 461.28 63.53 461.28 67.34L461.28 82L460.37 82L460.37 60.18L461.28 60.18L461.28 63.65L461.38 63.65C462.41 61.37 464.91 59.9 467.92 59.9C472.29 59.9 475.37 62.96 475.37 67.34L475.37 82L474.46 82L474.46 67.34C474.46 63.47 471.78 60.8 467.92 60.8ZM384 85.97C383.02 88.71 381.31 90.18 379.17 90.18C378.43 90.18 377.59 89.97 376.73 89.61L377.07 88.81C379.88 90.02 381.97 88.9 383.15 85.63L384.31 82.4L376.35 60.18L377.32 60.18L384.71 80.86L384.82 80.86L392.21 60.18L393.18 60.18L384 85.97ZM443.42 60.75C439.14 60.75 435.71 64.75 435.33 70.18L451.43 70.18C451.43 64.93 447.84 60.75 443.42 60.75ZM355.45 76.09C355.45 79.38 357.95 81.54 361.18 81.54C365.33 81.54 368.62 77.96 368.62 72.68L368.62 69.38C367.55 70.18 365.61 70.58 363.11 70.86C357.26 71.54 355.45 73.3 355.45 76.09Z" fill="#5C0E62" fill-opacity="1.000000" fill-rule="evenodd"/>
	<path id="Hac sem ut eget tellus diam convallis lacus a, interdum nulla sem adipiscing inw" d="M252.29 152.92C252.29 153.59 251.7 154.14 250.98 154.14C250.26 154.14 249.67 153.59 249.67 152.92C249.67 152.25 250.26 151.69 250.98 151.69C251.7 151.69 252.29 152.25 252.29 152.92ZM347.24 152.92C347.24 153.59 346.64 154.14 345.93 154.14C345.21 154.14 344.62 153.59 344.62 152.92C344.62 152.25 345.21 151.69 345.93 151.69C346.64 151.69 347.24 152.25 347.24 152.92ZM434.95 152.92C434.95 153.59 434.35 154.14 433.63 154.14C432.92 154.14 432.33 153.59 432.33 152.92C432.33 152.25 432.92 151.69 433.63 151.69C434.35 151.69 434.95 152.25 434.95 152.92ZM49.47 164L47.01 164L47.01 152.36L49.47 152.36L49.47 157.16L54.46 157.16L54.46 152.36L56.92 152.36L56.92 164L54.46 164L54.46 159.19L49.47 159.19L49.47 164ZM204.41 152.36L206.83 152.36L206.83 164L204.41 164L204.41 152.36ZM209.4 152.36L211.82 152.36L211.82 164L209.4 164L209.4 152.36ZM244.65 162.6C244.32 163.32 243.58 164.14 242.18 164.14C240.19 164.14 238.63 162.56 238.63 159.64C238.63 156.64 240.26 155.16 242.17 155.16C243.63 155.16 244.33 156.02 244.65 156.73L244.73 156.73L244.73 152.36L247.14 152.36L247.14 164L244.76 164L244.76 162.6L244.65 162.6ZM334.72 152.36L337.14 152.36L337.14 164L334.72 164L334.72 152.36ZM339.71 152.36L342.14 152.36L342.14 164L339.71 164L339.71 152.36ZM363.68 152.36L366.1 152.36L366.1 164L363.68 164L363.68 152.36ZM477.43 162.6C477.09 163.32 476.36 164.14 474.95 164.14C472.96 164.14 471.41 162.56 471.41 159.64C471.41 156.64 473.03 155.16 474.95 155.16C476.41 155.16 477.11 156.02 477.43 156.73L477.5 156.73L477.5 152.36L479.92 152.36L479.92 164L477.53 164L477.53 162.6L477.43 162.6ZM136.85 155.27L138.5 155.27L138.5 157.09L136.85 157.09L136.85 161.31C136.85 161.98 137.19 162.17 137.67 162.17C137.9 162.17 138.15 162.11 138.27 162.09L138.65 163.89C138.41 163.97 137.96 164.09 137.34 164.12C135.59 164.19 134.42 163.34 134.43 161.63L134.43 157.09L133.24 157.09L133.24 155.27L134.43 155.27L134.43 153.18L136.85 153.18L136.85 155.27ZM179.23 155.27L180.88 155.27L180.88 157.09L179.23 157.09L179.23 161.31C179.23 161.98 179.57 162.17 180.05 162.17C180.28 162.17 180.53 162.11 180.65 162.09L181.03 163.89C180.79 163.97 180.35 164.09 179.72 164.12C177.97 164.19 176.8 163.34 176.81 161.63L176.81 157.09L175.62 157.09L175.62 155.27L176.81 155.27L176.81 153.18L179.23 153.18L179.23 155.27ZM190.44 155.27L192.08 155.27L192.08 157.09L190.44 157.09L190.44 161.31C190.44 161.98 190.77 162.17 191.26 162.17C191.49 162.17 191.74 162.11 191.86 162.09L192.24 163.89C192 163.97 191.55 164.09 190.93 164.12C189.17 164.19 188.01 163.34 188.02 161.63L188.02 157.09L186.83 157.09L186.83 155.27L188.02 155.27L188.02 153.18L190.44 153.18L190.44 155.27ZM451 155.27L452.64 155.27L452.64 157.09L451 157.09L451 161.31C451 161.98 451.33 162.17 451.82 162.17C452.04 162.17 452.3 162.11 452.42 162.09L452.8 163.89C452.56 163.97 452.11 164.09 451.49 164.12C449.73 164.19 448.57 163.34 448.58 161.63L448.58 157.09L447.38 157.09L447.38 155.27L448.58 155.27L448.58 153.18L451 153.18L451 155.27ZM467.39 164L464.96 164L464.96 155.27L467.31 155.27L467.31 156.79L467.4 156.79C467.72 155.71 468.52 155.14 469.5 155.14C469.75 155.14 470.05 155.18 470.26 155.23L470.26 157.37C470.03 157.3 469.57 157.25 469.24 157.25C468.17 157.25 467.39 157.98 467.39 159.06L467.39 164ZM64.58 162.78C64.15 163.6 63.32 164.16 62.03 164.16C60.36 164.16 59.13 163.28 59.13 161.56C59.13 159.61 60.68 159.03 62.41 158.87C63.92 158.72 64.52 158.65 64.52 158.09L64.52 158.05C64.52 157.34 64.05 156.92 63.22 156.92C62.36 156.92 61.84 157.35 61.67 157.93L59.44 157.75C59.77 156.16 61.15 155.16 63.24 155.16C65.18 155.16 66.94 156.03 66.94 158.11L66.94 164L64.65 164L64.65 162.78L64.58 162.78ZM77.31 160.8C77.19 162.8 75.73 164.17 73.41 164.17C70.72 164.17 69.11 162.32 69.11 159.67C69.11 156.99 70.75 155.16 73.4 155.16C75.67 155.16 77.2 156.48 77.31 158.5L75.02 158.5C74.89 157.62 74.32 157.04 73.43 157.04C72.31 157.04 71.57 157.98 71.57 159.63C71.57 161.3 72.31 162.25 73.43 162.25C74.26 162.25 74.88 161.73 75.02 160.8L77.31 160.8ZM87.4 155.16C89.6 155.16 90.9 156.15 91.11 157.76L88.9 157.89C88.78 157.33 88.28 156.87 87.44 156.87C86.69 156.87 86.1 157.21 86.1 157.73C86.1 158.16 86.4 158.43 87.21 158.61L88.79 158.93C90.48 159.27 91.31 160.03 91.31 161.29C91.31 163.01 89.69 164.17 87.42 164.17C85.11 164.17 83.69 163.14 83.46 161.47L85.85 161.34C85.99 162.05 86.57 162.42 87.43 162.42C88.28 162.42 88.84 162.05 88.85 161.53C88.84 161.1 88.49 160.82 87.73 160.67L86.22 160.37C84.51 160.02 83.69 159.18 83.7 157.87C83.69 156.19 85.16 155.16 87.4 155.16ZM101.41 161.5C101.07 163.12 99.61 164.17 97.45 164.17C94.77 164.17 93.13 162.44 93.13 159.67C93.13 156.98 94.79 155.16 97.36 155.16C99.67 155.16 101.46 156.62 101.46 159.59L101.46 160.25L95.52 160.25L95.52 160.26C95.52 161.56 96.29 162.36 97.5 162.36C98.3 162.36 98.93 162.01 99.17 161.35L101.41 161.5ZM106.1 164L103.68 164L103.68 155.27L105.99 155.27L105.99 156.81L106.09 156.81C106.45 155.78 107.35 155.16 108.52 155.16C109.72 155.16 110.61 155.8 110.89 156.81L110.98 156.81C111.34 155.81 112.34 155.16 113.61 155.16C115.24 155.16 116.36 156.23 116.36 158.12L116.36 164L113.95 164L113.95 158.6C113.95 157.63 113.37 157.15 112.6 157.15C111.72 157.15 111.2 157.76 111.2 158.67L111.2 164L108.85 164L108.85 158.55C108.85 157.69 108.32 157.15 107.52 157.15C106.72 157.15 106.1 157.79 106.1 158.76L106.1 164ZM152.99 161.5C152.65 163.12 151.19 164.17 149.03 164.17C146.35 164.17 144.71 162.44 144.71 159.67C144.71 156.98 146.37 155.16 148.94 155.16C151.24 155.16 153.04 156.62 153.04 159.59L153.04 160.25L147.1 160.25L147.1 160.26C147.1 161.56 147.87 162.36 149.08 162.36C149.88 162.36 150.51 162.01 150.75 161.35L152.99 161.5ZM163.46 164.08C163.46 166.31 161.69 167.45 159.19 167.45C156.84 167.45 155.49 166.39 155.2 165.02L157.44 164.72C157.64 165.25 158.18 165.71 159.25 165.71C160.3 165.71 161.07 165.25 161.07 164.05L161.07 162.45L160.97 162.45C160.65 163.17 159.87 163.87 158.48 163.87C156.51 163.87 154.94 162.52 154.94 159.62C154.94 156.64 156.56 155.16 158.47 155.16C159.93 155.16 160.64 156.02 160.97 156.73L161.06 156.73L161.06 155.27L163.46 155.27L163.46 164.08ZM173.96 161.5C173.62 163.12 172.17 164.17 170.01 164.17C167.32 164.17 165.68 162.44 165.68 159.67C165.68 156.98 167.34 155.16 169.91 155.16C172.22 155.16 174.01 156.62 174.01 159.59L174.01 160.25L168.07 160.25L168.07 160.26C168.07 161.56 168.84 162.36 170.05 162.36C170.85 162.36 171.48 162.01 171.73 161.35L173.96 161.5ZM202.14 161.5C201.8 163.12 200.34 164.17 198.18 164.17C195.49 164.17 193.85 162.44 193.85 159.67C193.85 156.98 195.52 155.16 198.09 155.16C200.39 155.16 202.19 156.62 202.19 159.59L202.19 160.25L196.24 160.25L196.24 160.26C196.24 161.56 197.01 162.36 198.22 162.36C199.03 162.36 199.65 162.01 199.9 161.35L202.14 161.5ZM228.53 155.16C230.73 155.16 232.03 156.15 232.24 157.76L230.03 157.89C229.91 157.33 229.41 156.87 228.57 156.87C227.82 156.87 227.23 157.21 227.23 157.73C227.23 158.16 227.53 158.43 228.34 158.61L229.92 158.93C231.61 159.27 232.44 160.03 232.44 161.29C232.44 163.01 230.82 164.17 228.55 164.17C226.24 164.17 224.82 163.14 224.59 161.47L226.98 161.34C227.12 162.05 227.7 162.42 228.56 162.42C229.41 162.42 229.97 162.05 229.98 161.53C229.97 161.1 229.62 160.82 228.86 160.67L227.35 160.37C225.64 160.02 224.82 159.18 224.83 157.87C224.82 156.19 226.29 155.16 228.53 155.16ZM259.79 162.78C259.37 163.6 258.54 164.16 257.24 164.16C255.58 164.16 254.35 163.28 254.35 161.56C254.35 159.61 255.9 159.03 257.63 158.87C259.14 158.72 259.74 158.65 259.74 158.09L259.74 158.05C259.74 157.34 259.27 156.92 258.44 156.92C257.58 156.92 257.06 157.35 256.89 157.93L254.65 157.75C254.99 156.16 256.37 155.16 258.46 155.16C260.4 155.16 262.16 156.03 262.16 158.11L262.16 164L259.87 164L259.87 162.78L259.79 162.78ZM267.1 164L264.68 164L264.68 155.27L266.99 155.27L266.99 156.81L267.09 156.81C267.45 155.78 268.34 155.16 269.52 155.16C270.72 155.16 271.61 155.8 271.89 156.81L271.98 156.81C272.34 155.81 273.34 155.16 274.61 155.16C276.24 155.16 277.36 156.23 277.36 158.12L277.36 164L274.95 164L274.95 158.6C274.95 157.63 274.37 157.15 273.59 157.15C272.72 157.15 272.2 157.76 272.2 158.67L272.2 164L269.85 164L269.85 158.55C269.85 157.69 269.32 157.15 268.52 157.15C267.72 157.15 267.1 157.79 267.1 158.76L267.1 164ZM292.1 160.8C291.99 162.8 290.53 164.17 288.21 164.17C285.52 164.17 283.91 162.32 283.91 159.67C283.91 156.99 285.55 155.16 288.19 155.16C290.47 155.16 292 156.48 292.1 158.5L289.82 158.5C289.69 157.62 289.12 157.04 288.23 157.04C287.11 157.04 286.37 157.98 286.37 159.63C286.37 161.3 287.1 162.25 288.23 162.25C289.06 162.25 289.68 161.73 289.82 160.8L292.1 160.8ZM302.54 159.67C302.54 162.35 300.89 164.17 298.24 164.17C295.6 164.17 293.95 162.35 293.95 159.67C293.95 156.96 295.6 155.16 298.24 155.16C300.89 155.16 302.54 156.96 302.54 159.67ZM308.83 157.17C307.85 157.17 307.18 157.82 307.18 158.95L307.18 164L304.76 164L304.76 155.27L307.07 155.27L307.07 156.81L307.17 156.81C307.56 155.79 308.5 155.16 309.79 155.16C311.61 155.16 312.8 156.41 312.8 158.44L312.8 164L310.38 164L310.38 158.87C310.39 157.8 309.8 157.17 308.83 157.17ZM329.84 162.78C329.41 163.6 328.58 164.16 327.29 164.16C325.62 164.16 324.39 163.28 324.39 161.56C324.39 159.61 325.94 159.03 327.67 158.87C329.19 158.72 329.78 158.65 329.78 158.09L329.78 158.05C329.78 157.34 329.31 156.92 328.49 156.92C327.62 156.92 327.1 157.35 326.94 157.93L324.7 157.75C325.03 156.16 326.41 155.16 328.5 155.16C330.44 155.16 332.2 156.03 332.2 158.11L332.2 164L329.91 164L329.91 162.78L329.84 162.78ZM353.25 155.16C355.45 155.16 356.75 156.15 356.96 157.76L354.75 157.89C354.63 157.33 354.13 156.87 353.29 156.87C352.54 156.87 351.95 157.21 351.95 157.73C351.95 158.16 352.25 158.43 353.06 158.61L354.64 158.93C356.33 159.27 357.16 160.03 357.16 161.29C357.16 163.01 355.54 164.17 353.27 164.17C350.96 164.17 349.54 163.14 349.31 161.47L351.7 161.34C351.84 162.05 352.42 162.42 353.28 162.42C354.13 162.42 354.69 162.05 354.7 161.53C354.69 161.1 354.34 160.82 353.58 160.67L352.07 160.37C350.36 160.02 349.54 159.18 349.55 157.87C349.54 156.19 351.01 155.16 353.25 155.16ZM373.71 162.78C373.28 163.6 372.45 164.16 371.16 164.16C369.49 164.16 368.26 163.28 368.26 161.56C368.26 159.61 369.82 159.03 371.54 158.87C373.06 158.72 373.65 158.65 373.65 158.09L373.65 158.05C373.65 157.34 373.18 156.92 372.36 156.92C371.49 156.92 370.97 157.35 370.81 157.93L368.57 157.75C368.9 156.16 370.28 155.16 372.37 155.16C374.32 155.16 376.08 156.03 376.08 158.11L376.08 164L373.78 164L373.78 162.78L373.71 162.78ZM386.44 160.8C386.32 162.8 384.86 164.17 382.54 164.17C379.85 164.17 378.24 162.32 378.24 159.67C378.24 156.99 379.88 155.16 382.53 155.16C384.81 155.16 386.33 156.48 386.44 158.5L384.15 158.5C384.02 157.62 383.45 157.04 382.57 157.04C381.44 157.04 380.7 157.98 380.7 159.63C380.7 161.3 381.44 162.25 382.57 162.25C383.4 162.25 384.01 161.73 384.15 160.8L386.44 160.8ZM402.77 155.16C404.97 155.16 406.27 156.15 406.48 157.76L404.27 157.89C404.15 157.33 403.65 156.87 402.81 156.87C402.06 156.87 401.47 157.21 401.47 157.73C401.47 158.16 401.77 158.43 402.58 158.61L404.16 158.93C405.85 159.27 406.68 160.03 406.68 161.29C406.68 163.01 405.06 164.17 402.8 164.17C400.48 164.17 399.06 163.14 398.83 161.47L401.22 161.34C401.37 162.05 401.94 162.42 402.8 162.42C403.65 162.42 404.21 162.05 404.22 161.53C404.21 161.1 403.87 160.82 403.1 160.67L401.59 160.37C399.89 160.02 399.06 159.18 399.07 157.87C399.06 156.19 400.53 155.16 402.77 155.16ZM418.24 162.78C417.81 163.6 416.98 164.16 415.69 164.16C414.02 164.16 412.79 163.28 412.79 161.56C412.79 159.61 414.34 159.03 416.07 158.87C417.59 158.72 418.18 158.65 418.18 158.09L418.18 158.05C418.18 157.34 417.71 156.92 416.89 156.92C416.02 156.92 415.5 157.35 415.34 157.93L413.1 157.75C413.43 156.16 414.81 155.16 416.9 155.16C418.84 155.16 420.61 156.03 420.61 158.11L420.61 164L418.31 164L418.31 162.78L418.24 162.78ZM441.48 157.17C440.51 157.17 439.83 157.82 439.83 158.95L439.83 164L437.41 164L437.41 155.27L439.72 155.27L439.72 156.81L439.82 156.81C440.21 155.79 441.15 155.16 442.44 155.16C444.26 155.16 445.45 156.41 445.45 158.44L445.45 164L443.03 164L443.03 158.87C443.04 157.8 442.45 157.17 441.48 157.17ZM462.7 161.5C462.36 163.12 460.9 164.17 458.74 164.17C456.05 164.17 454.41 162.44 454.41 159.67C454.41 156.98 456.07 155.16 458.64 155.16C460.95 155.16 462.75 156.62 462.75 159.59L462.75 160.25L456.8 160.25L456.8 160.26C456.8 161.56 457.57 162.36 458.78 162.36C459.59 162.36 460.21 162.01 460.46 161.35L462.7 161.5ZM495.55 164L493.13 164L493.13 155.27L495.44 155.27L495.44 156.81L495.54 156.81C495.9 155.78 496.79 155.16 497.97 155.16C499.17 155.16 500.06 155.8 500.34 156.81L500.43 156.81C500.79 155.81 501.78 155.16 503.06 155.16C504.69 155.16 505.81 156.23 505.81 158.12L505.81 164L503.4 164L503.4 158.6C503.4 157.63 502.82 157.15 502.04 157.15C501.16 157.15 500.65 157.76 500.65 158.67L500.65 164L498.3 164L498.3 158.55C498.3 157.69 497.77 157.15 496.97 157.15C496.16 157.15 495.55 157.79 495.55 158.76L495.55 164ZM127.2 162.06C128.06 162.06 128.86 161.45 128.86 160.28L128.86 155.27L131.28 155.27L131.28 164L128.96 164L128.96 162.41L128.86 162.41C128.47 163.43 127.53 164.11 126.22 164.11C124.46 164.11 123.27 162.87 123.26 160.82L123.26 155.27L125.68 155.27L125.68 160.39C125.69 161.42 126.28 162.06 127.2 162.06ZM218.32 162.06C219.19 162.06 219.99 161.45 219.99 160.28L219.99 155.27L222.41 155.27L222.41 164L220.09 164L220.09 162.41L219.99 162.41C219.6 163.43 218.66 164.11 217.35 164.11C215.59 164.11 214.4 162.87 214.39 160.82L214.39 155.27L216.81 155.27L216.81 160.39C216.82 161.42 217.41 162.06 218.32 162.06ZM252.19 164L249.76 164L249.76 155.27L252.19 155.27L252.19 164ZM320.6 155.27L323.16 155.27L320.11 164L317.39 164L314.34 155.27L316.89 155.27L318.7 161.51L318.8 161.51L320.6 155.27ZM347.13 164L344.71 164L344.71 155.27L347.13 155.27L347.13 164ZM392.57 162.06C393.43 162.06 394.23 161.45 394.23 160.28L394.23 155.27L396.65 155.27L396.65 164L394.33 164L394.33 162.41L394.23 162.41C393.84 163.43 392.9 164.11 391.59 164.11C389.83 164.11 388.64 162.87 388.63 160.82L388.63 155.27L391.05 155.27L391.05 160.39C391.06 161.42 391.65 162.06 392.57 162.06ZM434.84 164L432.42 164L432.42 155.27L434.84 155.27L434.84 164ZM486.47 162.06C487.34 162.06 488.14 161.45 488.14 160.28L488.14 155.27L490.56 155.27L490.56 164L488.24 164L488.24 162.41L488.14 162.41C487.75 163.43 486.81 164.11 485.5 164.11C483.74 164.11 482.55 162.87 482.54 160.82L482.54 155.27L484.96 155.27L484.96 160.39C484.97 161.42 485.56 162.06 486.47 162.06ZM97.4 156.96C96.33 156.96 95.57 157.76 95.52 158.75L99.19 158.75C99.18 157.71 98.45 156.96 97.4 156.96ZM148.98 156.96C147.9 156.96 147.15 157.76 147.1 158.75L150.76 158.75C150.76 157.71 150.03 156.96 148.98 156.96ZM169.95 156.96C168.88 156.96 168.12 157.76 168.07 158.75L171.74 158.75C171.73 157.71 171 156.96 169.95 156.96ZM198.13 156.96C197.05 156.96 196.3 157.76 196.24 158.75L199.91 158.75C199.9 157.71 199.18 156.96 198.13 156.96ZM458.68 156.96C457.61 156.96 456.86 157.76 456.8 158.75L460.47 158.75C460.46 157.71 459.73 156.96 458.68 156.96ZM296.41 159.65C296.41 161.17 297.03 162.29 298.26 162.29C299.46 162.29 300.08 161.17 300.08 159.65C300.08 158.12 299.46 157 298.26 157C297.03 157 296.41 158.12 296.41 159.65ZM157.41 159.6C157.41 161.11 158.06 162.05 159.24 162.05C160.41 162.05 161.08 161.14 161.08 159.6C161.08 158.07 160.42 157.08 159.24 157.08C158.04 157.08 157.41 158.12 157.41 159.6ZM241.11 159.63C241.11 161.16 241.76 162.21 242.94 162.21C244.11 162.21 244.78 161.19 244.78 159.63C244.78 158.07 244.12 157.08 242.94 157.08C241.74 157.08 241.11 158.12 241.11 159.63ZM473.88 159.63C473.88 161.16 474.53 162.21 475.72 162.21C476.88 162.21 477.56 161.19 477.56 159.63C477.56 158.07 476.9 157.08 475.72 157.08C474.52 157.08 473.88 158.12 473.88 159.63ZM61.44 161.48C61.44 162.14 61.97 162.49 62.72 162.49C63.78 162.49 64.54 161.79 64.54 160.87L64.54 159.95C64.25 160.14 63.39 160.27 62.86 160.34C62.01 160.46 61.44 160.8 61.44 161.48ZM256.66 161.48C256.66 162.14 257.19 162.49 257.94 162.49C259 162.49 259.76 161.79 259.76 160.87L259.76 159.95C259.47 160.14 258.6 160.27 258.08 160.34C257.22 160.46 256.66 160.8 256.66 161.48ZM326.7 161.48C326.7 162.14 327.24 162.49 327.98 162.49C329.04 162.49 329.8 161.79 329.8 160.87L329.8 159.95C329.51 160.14 328.65 160.27 328.12 160.34C327.27 160.46 326.7 160.8 326.7 161.48ZM370.58 161.48C370.58 162.14 371.11 162.49 371.85 162.49C372.92 162.49 373.67 161.79 373.67 160.87L373.67 159.95C373.38 160.14 372.52 160.27 371.99 160.34C371.14 160.46 370.58 160.8 370.58 161.48ZM415.11 161.48C415.11 162.14 415.64 162.49 416.38 162.49C417.45 162.49 418.2 161.79 418.2 160.87L418.2 159.95C417.91 160.14 417.05 160.27 416.52 160.34C415.67 160.46 415.11 160.8 415.11 161.48ZM423.76 162.41L425.76 162.41L425.69 163.03C425.54 164.53 424.89 166.15 424.62 166.84L423.05 166.84C423.22 166.17 423.66 164.59 423.73 163.04L423.76 162.41ZM155.07 173.92C155.07 174.59 154.48 175.14 153.76 175.14C153.04 175.14 152.45 174.59 152.45 173.92C152.45 173.25 153.04 172.69 153.76 172.69C154.48 172.69 155.07 173.25 155.07 173.92ZM170.82 173.92C170.82 174.59 170.23 175.14 169.51 175.14C168.79 175.14 168.2 174.59 168.2 173.92C168.2 173.25 168.79 172.69 169.51 172.69C170.23 172.69 170.82 173.25 170.82 173.92ZM195.48 173.92C195.48 174.59 194.89 175.14 194.17 175.14C193.45 175.14 192.86 174.59 192.86 173.92C192.86 173.25 193.45 172.69 194.17 172.69C194.89 172.69 195.48 173.25 195.48 173.92ZM226.18 173.92C226.18 174.59 225.59 175.14 224.87 175.14C224.15 175.14 223.56 174.59 223.56 173.92C223.56 173.25 224.15 172.69 224.87 172.69C225.59 172.69 226.18 173.25 226.18 173.92ZM68.14 173.36L70.56 173.36L70.56 185L68.14 185L68.14 173.36ZM73.13 173.36L75.55 173.36L75.55 185L73.13 185L73.13 173.36ZM147.43 183.6C147.09 184.32 146.36 185.14 144.95 185.14C142.96 185.14 141.41 183.56 141.41 180.64C141.41 177.64 143.03 176.16 144.94 176.16C146.41 176.16 147.1 177.02 147.43 177.73L147.5 177.73L147.5 173.36L149.92 173.36L149.92 185L147.53 185L147.53 183.6L147.43 183.6ZM51.03 178.17C50.06 178.17 49.39 178.82 49.38 179.95L49.38 185L46.96 185L46.96 176.27L49.27 176.27L49.27 177.81L49.37 177.81C49.76 176.79 50.7 176.16 52 176.16C53.81 176.16 55.01 177.41 55.01 179.44L55.01 185L52.58 185L52.58 179.87C52.59 178.8 52.01 178.17 51.03 178.17ZM83.16 183.78C82.74 184.6 81.9 185.16 80.61 185.16C78.95 185.16 77.72 184.28 77.72 182.56C77.72 180.61 79.27 180.03 80.99 179.87C82.51 179.72 83.11 179.65 83.11 179.09L83.11 179.05C83.11 178.34 82.63 177.92 81.81 177.92C80.94 177.92 80.42 178.35 80.26 178.93L78.02 178.75C78.36 177.16 79.73 176.16 81.82 176.16C83.77 176.16 85.53 177.03 85.53 179.11L85.53 185L83.23 185L83.23 183.78L83.16 183.78ZM95.94 176.16C98.15 176.16 99.44 177.15 99.66 178.76L97.44 178.89C97.32 178.33 96.82 177.87 95.98 177.87C95.23 177.87 94.64 178.21 94.65 178.73C94.64 179.16 94.94 179.43 95.76 179.61L97.33 179.93C99.03 180.27 99.85 181.03 99.86 182.29C99.85 184.01 98.23 185.17 95.97 185.17C93.66 185.17 92.24 184.14 92.01 182.47L94.39 182.34C94.54 183.05 95.12 183.42 95.98 183.42C96.82 183.42 97.38 183.05 97.4 182.53C97.38 182.1 97.04 181.82 96.28 181.67L94.77 181.37C93.06 181.02 92.24 180.18 92.24 178.87C92.24 177.19 93.71 176.16 95.94 176.16ZM109.96 182.5C109.62 184.12 108.16 185.17 106 185.17C103.31 185.17 101.67 183.44 101.67 180.67C101.67 177.98 103.34 176.16 105.91 176.16C108.21 176.16 110.01 177.62 110.01 180.59L110.01 181.25L104.06 181.25L104.06 181.26C104.06 182.56 104.83 183.36 106.05 183.36C106.85 183.36 107.47 183.01 107.72 182.35L109.96 182.5ZM114.65 185L112.23 185L112.23 176.27L114.54 176.27L114.54 177.81L114.64 177.81C115 176.78 115.89 176.16 117.07 176.16C118.27 176.16 119.16 176.8 119.44 177.81L119.53 177.81C119.89 176.81 120.88 176.16 122.16 176.16C123.79 176.16 124.91 177.23 124.91 179.12L124.91 185L122.5 185L122.5 179.6C122.5 178.63 121.92 178.15 121.14 178.15C120.26 178.15 119.75 178.76 119.75 179.67L119.75 185L117.4 185L117.4 179.55C117.4 178.69 116.86 178.15 116.07 178.15C115.26 178.15 114.65 178.79 114.65 179.76L114.65 185ZM136.85 183.78C136.42 184.6 135.59 185.16 134.3 185.16C132.63 185.16 131.4 184.28 131.4 182.56C131.4 180.61 132.95 180.03 134.68 179.87C136.2 179.72 136.79 179.65 136.79 179.09L136.79 179.05C136.79 178.34 136.32 177.92 135.5 177.92C134.63 177.92 134.11 178.35 133.95 178.93L131.71 178.75C132.04 177.16 133.42 176.16 135.51 176.16C137.45 176.16 139.22 177.03 139.22 179.11L139.22 185L136.92 185L136.92 183.78L136.85 183.78ZM159.95 188.27L157.53 188.27L157.53 176.27L159.92 176.27L159.92 177.73L160.03 177.73C160.35 177.02 161.05 176.16 162.51 176.16C164.42 176.16 166.04 177.64 166.04 180.64C166.04 183.56 164.49 185.14 162.5 185.14C161.09 185.14 160.36 184.32 160.03 183.6L159.95 183.6L159.95 188.27ZM176.83 176.16C179.03 176.16 180.33 177.15 180.54 178.76L178.33 178.89C178.21 178.33 177.71 177.87 176.87 177.87C176.12 177.87 175.53 178.21 175.53 178.73C175.53 179.16 175.83 179.43 176.64 179.61L178.22 179.93C179.91 180.27 180.74 181.03 180.74 182.29C180.74 184.01 179.12 185.17 176.86 185.17C174.54 185.17 173.13 184.14 172.9 182.47L175.28 182.34C175.43 183.05 176 183.42 176.86 183.42C177.71 183.42 178.27 183.05 178.28 182.53C178.27 182.1 177.93 181.82 177.16 181.67L175.65 181.37C173.95 181.02 173.13 180.18 173.13 178.87C173.13 177.19 174.59 176.16 176.83 176.16ZM190.75 181.8C190.64 183.8 189.18 185.17 186.86 185.17C184.17 185.17 182.56 183.32 182.56 180.67C182.56 177.99 184.2 176.16 186.84 176.16C189.12 176.16 190.65 177.48 190.75 179.5L188.47 179.5C188.34 178.62 187.77 178.04 186.88 178.04C185.76 178.04 185.02 178.98 185.02 180.63C185.02 182.3 185.75 183.25 186.88 183.25C187.71 183.25 188.32 182.73 188.47 181.8L190.75 181.8ZM202.01 178.17C201.04 178.17 200.37 178.82 200.36 179.95L200.36 185L197.94 185L197.94 176.27L200.25 176.27L200.25 177.81L200.35 177.81C200.74 176.79 201.68 176.16 202.98 176.16C204.79 176.16 205.99 177.41 205.99 179.44L205.99 185L203.57 185L203.57 179.87C203.57 178.8 202.99 178.17 202.01 178.17ZM216.73 185.08C216.73 187.31 214.96 188.45 212.46 188.45C210.11 188.45 208.76 187.39 208.47 186.02L210.71 185.72C210.91 186.25 211.45 186.71 212.52 186.71C213.57 186.71 214.34 186.25 214.34 185.05L214.34 183.45L214.24 183.45C213.92 184.17 213.14 184.87 211.75 184.87C209.78 184.87 208.21 183.52 208.21 180.62C208.21 177.64 209.83 176.16 211.74 176.16C213.2 176.16 213.91 177.02 214.24 177.73L214.33 177.73L214.33 176.27L216.73 176.27L216.73 185.08ZM232.72 178.17C231.74 178.17 231.07 178.82 231.06 179.95L231.06 185L228.64 185L228.64 176.27L230.95 176.27L230.95 177.81L231.05 177.81C231.44 176.79 232.38 176.16 233.68 176.16C235.49 176.16 236.69 177.41 236.69 179.44L236.69 185L234.27 185L234.27 179.87C234.28 178.8 233.69 178.17 232.72 178.17ZM61.48 183.06C62.35 183.06 63.15 182.45 63.15 181.28L63.15 176.27L65.57 176.27L65.57 185L63.24 185L63.24 183.41L63.15 183.41C62.76 184.43 61.82 185.11 60.51 185.11C58.75 185.11 57.56 183.87 57.55 181.82L57.55 176.27L59.97 176.27L59.97 181.39C59.97 182.42 60.57 183.06 61.48 183.06ZM154.96 185L152.54 185L152.54 176.27L154.96 176.27L154.96 185ZM170.71 185L168.29 185L168.29 176.27L170.71 176.27L170.71 185ZM195.37 185L192.95 185L192.95 176.27L195.37 176.27L195.37 185ZM226.07 185L223.65 185L223.65 176.27L226.07 176.27L226.07 185ZM243.51 185L240.95 185L238.58 176.27L241.03 176.27L242.38 182.13L242.46 182.13L243.87 176.27L246.27 176.27L247.7 182.1L247.78 182.1L249.11 176.27L251.55 176.27L249.18 185L246.62 185L245.12 179.51L245.01 179.51L243.51 185ZM105.95 177.96C104.87 177.96 104.12 178.76 104.06 179.75L107.73 179.75C107.72 178.71 107 177.96 105.95 177.96ZM143.88 180.63C143.88 182.16 144.53 183.21 145.72 183.21C146.88 183.21 147.55 182.19 147.55 180.63C147.55 179.07 146.89 178.08 145.72 178.08C144.52 178.08 143.88 179.12 143.88 180.63ZM161.74 178.08C160.56 178.08 159.9 179.07 159.9 180.63C159.9 182.19 160.57 183.21 161.74 183.21C162.92 183.21 163.57 182.16 163.57 180.63C163.57 179.12 162.94 178.08 161.74 178.08ZM210.68 180.6C210.68 182.11 211.33 183.05 212.51 183.05C213.68 183.05 214.35 182.14 214.35 180.6C214.35 179.07 213.69 178.08 212.51 178.08C211.31 178.08 210.68 179.12 210.68 180.6ZM80.03 182.48C80.03 183.14 80.56 183.49 81.31 183.49C82.37 183.49 83.12 182.79 83.12 181.87L83.12 180.95C82.83 181.14 81.97 181.27 81.44 181.34C80.59 181.46 80.03 181.8 80.03 182.48ZM133.72 182.48C133.72 183.14 134.25 183.49 134.99 183.49C136.06 183.49 136.81 182.79 136.81 181.87L136.81 180.95C136.52 181.14 135.66 181.27 135.13 181.34C134.28 181.46 133.72 181.8 133.72 182.48Z" fill="#857885" fill-opacity="1.000000" fill-rule="evenodd"/>
	<path id="Learn more" d="M55 223L48.04 223L48.04 209.9L48.45 209.9L48.45 222.59L55 222.59L55 223ZM64.94 221.26C64.5 222 63.45 223.2 61.54 223.2C58.96 223.2 57.27 221 57.27 218.11C57.27 215.22 59.02 213.02 61.34 213.02C63.62 213.02 65.35 215.14 65.35 217.68L65.35 218.09L57.68 218.09C57.68 220.65 59.07 222.79 61.54 222.79C63.35 222.79 64.25 221.62 64.61 221.03L64.94 221.26ZM73.99 221C73.38 222.33 72.18 223.2 70.69 223.2C69.08 223.2 67.7 222.18 67.7 220.34C67.7 219.01 68.39 217.96 71.41 217.6C72.76 217.45 74.04 217.3 74.04 216.53L74.04 215.94C74.04 214.43 72.94 213.43 71.26 213.43C69.88 213.43 68.78 214.07 68.37 215.17L67.98 215.02C68.44 213.79 69.72 213.02 71.26 213.02C73.25 213.02 74.45 214.28 74.45 215.94L74.45 223L74.04 223L74.04 221L73.99 221ZM121.7 218.11C121.7 221.01 119.95 223.2 117.64 223.2C115.32 223.2 113.57 221.01 113.57 218.11C113.57 215.22 115.32 213.02 117.64 213.02C119.95 213.02 121.7 215.22 121.7 218.11ZM137.22 221.26C136.79 222 135.73 223.2 133.82 223.2C131.25 223.2 129.55 221 129.55 218.11C129.55 215.22 131.3 213.02 133.62 213.02C135.9 213.02 137.63 215.14 137.63 217.68L137.63 218.09L129.96 218.09C129.97 220.65 131.35 222.79 133.82 222.79C135.63 222.79 136.53 221.62 136.89 221.03L137.22 221.26ZM78.39 223L77.98 223L77.98 213.18L78.39 213.18L78.39 214.74L78.44 214.74C78.9 213.71 80.03 213.05 81.38 213.05L81.59 213.05L81.59 213.46L81.38 213.46C79.64 213.46 78.39 214.69 78.39 216.4L78.39 223ZM87.23 213.46C85.5 213.46 84.25 214.69 84.25 216.4L84.25 223L83.84 223L83.84 213.18L84.25 213.18L84.25 214.74L84.29 214.74C84.76 213.71 85.88 213.05 87.23 213.05C89.2 213.05 90.59 214.43 90.59 216.4L90.59 223L90.18 223L90.18 216.4C90.18 214.66 88.97 213.46 87.23 213.46ZM99.54 223L99.13 223L99.13 213.18L99.54 213.18L99.54 214.63L99.58 214.63C99.94 213.68 100.92 213.05 102.22 213.05C103.7 213.05 104.57 213.84 104.91 215.07L104.95 215.07C105.28 213.84 106.31 213.05 107.79 213.05C109.76 213.05 110.68 214.43 110.68 216.4L110.68 223L110.27 223L110.27 216.4C110.27 214.66 109.53 213.46 107.79 213.46C106.05 213.46 105.11 214.69 105.11 216.4L105.11 223L104.7 223L104.7 216.4C104.7 214.66 103.96 213.46 102.22 213.46C100.48 213.46 99.54 214.69 99.54 216.4L99.54 223ZM125 223L124.59 223L124.59 213.18L125 213.18L125 214.74L125.05 214.74C125.51 213.71 126.64 213.05 127.99 213.05L128.2 213.05L128.2 213.46L127.99 213.46C126.25 213.46 125 214.69 125 216.4L125 223ZM61.34 213.43C59.41 213.43 57.86 215.23 57.69 217.68L64.94 217.68C64.94 215.32 63.32 213.43 61.34 213.43ZM113.98 218.11C113.98 220.78 115.55 222.79 117.64 222.79C119.72 222.79 121.29 220.78 121.29 218.11C121.29 215.45 119.72 213.43 117.64 213.43C115.57 213.43 113.98 215.46 113.98 218.11ZM133.62 213.43C131.69 213.43 130.15 215.23 129.97 217.68L137.22 217.68C137.22 215.32 135.6 213.43 133.62 213.43ZM68.11 220.34C68.11 221.82 69.24 222.79 70.69 222.79C72.56 222.79 74.04 221.18 74.04 218.8L74.04 217.32C73.56 217.68 72.69 217.86 71.56 217.99C68.93 218.29 68.11 219.08 68.11 220.34Z" fill="#5C0E62" fill-opacity="1.000000" fill-rule="evenodd"/>
	<path id="Vector 8" d="M153 218.5L170.5 218.5M165.5 223.5L170.5 218.5L165.5 213.5" stroke="#5C0E62" stroke-opacity="1.000000" stroke-width="2.000000" stroke-linejoin="round"/>
</svg>
