<svg width="434.855316" height="264.000000" viewBox="0 0 434.855 264" fill="none" xmlns="http://www.w3.org/2000/svg" xmlns:xlink="http://www.w3.org/1999/xlink">
	<desc>
			Created with Pixso.
	</desc>
	<defs>
		<filter id="filter_19_45_dd" x="0.000000" y="0.000000" width="381.174835" height="263.700073" filterUnits="userSpaceOnUse" color-interpolation-filters="sRGB">
			<feFlood flood-opacity="0" result="BackgroundImageFix"/>
			<feColorMatrix in="SourceAlpha" type="matrix" values="0 0 0 0 0 0 0 0 0 0 0 0 0 0 0 0 0 0 127 0" result="hardAlpha"/>
			<feOffset dx="7" dy="10"/>
			<feGaussianBlur stdDeviation="16.6667"/>
			<feComposite in2="hardAlpha" operator="out" k2="-1" k3="1"/>
			<feColorMatrix type="matrix" values="0 0 0 0 0.9098 0 0 0 0 0.88627 0 0 0 0 0.94118 0 0 0 1 0"/>
			<feBlend mode="normal" in2="BackgroundImageFix" result="effect_dropShadow_1"/>
			<feBlend mode="normal" in="SourceGraphic" in2="effect_dropShadow_1" result="shape"/>
		</filter>
		<filter id="filter_39_1197_dd" x="0.175049" y="0.299927" width="104.000000" height="263.700073" filterUnits="userSpaceOnUse" color-interpolation-filters="sRGB">
			<feFlood flood-opacity="0" result="BackgroundImageFix"/>
			<feColorMatrix in="SourceAlpha" type="matrix" values="0 0 0 0 0 0 0 0 0 0 0 0 0 0 0 0 0 0 127 0" result="hardAlpha"/>
			<feOffset dx="7" dy="10"/>
			<feGaussianBlur stdDeviation="16.6667"/>
			<feComposite in2="hardAlpha" operator="out" k2="-1" k3="1"/>
			<feColorMatrix type="matrix" values="0 0 0 0 0.9098 0 0 0 0 0.88627 0 0 0 0 0.94118 0 0 0 1 0"/>
			<feBlend mode="normal" in2="BackgroundImageFix" result="effect_dropShadow_1"/>
			<feBlend mode="normal" in="SourceGraphic" in2="effect_dropShadow_1" result="shape"/>
		</filter>
		<clipPath id="clip46_1212">
			<rect id="receipt-outline 1" width="24.000000" height="24.302368" transform="translate(90.924194 81.000000)" fill="white" fill-opacity="0"/>
		</clipPath>
		<linearGradient x1="43.174805" y1="50.191483" x2="47.175583" y2="231.279266" id="paint_linear_39_1197_0" gradientUnits="userSpaceOnUse">
			<stop stop-color="#00B5D0"/>
			<stop offset="1.000000" stop-color="#5C0E62"/>
		</linearGradient>
	</defs>
	<g filter="url(#filter_19_45_dd)">
		<rect id="Rectangle 3" x="43.000000" y="40.000000" rx="4.000000" width="281.174835" height="163.700119" fill="#FFFFFF" fill-opacity="1.000000"/>
	</g>
	<g filter="url(#filter_39_1197_dd)">
		<path id="Rectangle 3" d="M43.17 44.29C43.17 42.09 44.96 40.29 47.17 40.29L47.17 204C44.96 204 43.17 202.2 43.17 200L43.17 44.29Z" fill="url(#paint_linear_39_1197_0)" fill-opacity="1.000000" fill-rule="evenodd"/>
	</g>
	<rect id="receipt-outline 1" width="24.000000" height="24.302368" transform="translate(90.924194 81.000000)" fill="#FFFFFF" fill-opacity="0"/>
	<g clip-path="url(#clip46_1212)">
		<path id="Vector" d="M98.42 96.94L98.42 83.27L99.92 84.03L101.42 83.27L102.92 84.03L104.43 83.27L105.92 84.03L107.41 83.27L108.91 84.03L110.42 83.27L111.92 84.03L113.42 83.27L113.42 93.91" stroke="#591567" stroke-opacity="1.000000" stroke-width="1.518898" stroke-linejoin="round"/>
		<path id="Vector" d="M113.42 93.91L113.42 99.22C113.42 100.23 113.02 101.2 112.32 101.91C111.62 102.62 110.66 103.02 109.67 103.02C108.68 103.02 107.72 102.62 107.02 101.91C106.31 101.2 105.92 100.23 105.92 99.22L105.92 96.94L93.17 96.94C93.07 96.94 92.97 96.96 92.88 97C92.79 97.04 92.71 97.09 92.64 97.16C92.57 97.23 92.51 97.32 92.47 97.41C92.44 97.5 92.42 97.6 92.42 97.7C92.42 100.74 92.74 103.02 96.17 103.02L109.67 103.02" stroke="#591567" stroke-opacity="1.000000" stroke-width="1.518898" stroke-linejoin="round"/>
		<path id="Vector" d="M110.42 87.83L101.42 87.83L110.42 87.83ZM104.42 91.63L110.42 91.63" stroke="#591567" stroke-opacity="1.000000" stroke-width="1.518898" stroke-linejoin="round" stroke-linecap="round"/>
	</g>
	<path id="Manage Invoicing" d="M242.33 114.07C242.33 114.99 241.51 115.75 240.52 115.75C239.54 115.75 238.72 114.99 238.72 114.07C238.72 113.14 239.54 112.38 240.52 112.38C241.51 112.38 242.33 113.14 242.33 114.07ZM262.99 114.07C262.99 114.99 262.18 115.75 261.19 115.75C260.2 115.75 259.39 114.99 259.39 114.07C259.39 113.14 260.2 112.38 261.19 112.38C262.18 112.38 262.99 113.14 262.99 114.07ZM92.31 129.3L92.31 113.3L96.48 113.3L100.89 124.05L101.08 124.05L105.48 113.3L109.65 113.3L109.65 129.3L106.37 129.3L106.37 118.88L106.24 118.88L102.1 129.22L99.86 129.22L95.73 118.85L95.59 118.85L95.59 129.3L92.31 129.3ZM189.99 113.3L193.37 113.3L193.37 129.3L189.99 129.3L189.99 113.3ZM120.18 127.63C119.59 128.75 118.45 129.52 116.67 129.52C114.38 129.52 112.69 128.32 112.69 125.95C112.69 123.27 114.83 122.47 117.2 122.25C119.28 122.05 120.1 121.94 120.1 121.17L120.1 121.13C120.1 120.14 119.45 119.57 118.32 119.57C117.13 119.57 116.41 120.16 116.19 120.96L113.11 120.7C113.57 118.52 115.46 117.14 118.34 117.14C121.01 117.14 123.43 118.35 123.43 121.2L123.43 129.3L120.28 129.3L120.28 127.63L120.18 127.63ZM132.5 119.91C131.16 119.91 130.23 120.81 130.23 122.36L130.23 129.3L126.9 129.3L126.9 117.3L130.07 117.3L130.07 119.42L130.21 119.42C130.75 118.02 132.04 117.14 133.82 117.14C136.32 117.14 137.96 118.86 137.96 121.65L137.96 129.3L134.63 129.3L134.63 122.25C134.64 120.78 133.84 119.91 132.5 119.91ZM148.39 127.63C147.8 128.75 146.66 129.52 144.88 129.52C142.59 129.52 140.9 128.32 140.9 125.95C140.9 123.27 143.03 122.47 145.4 122.25C147.49 122.05 148.31 121.94 148.31 121.17L148.31 121.13C148.31 120.14 147.66 119.57 146.53 119.57C145.33 119.57 144.62 120.16 144.39 120.96L141.32 120.7C141.78 118.52 143.67 117.14 146.54 117.14C149.22 117.14 151.64 118.35 151.64 121.2L151.64 129.3L148.48 129.3L148.48 127.63L148.39 127.63ZM166.38 129.42C166.38 132.48 163.94 134.05 160.51 134.05C157.28 134.05 155.42 132.6 155.03 130.71L158.1 130.29C158.38 131.02 159.12 131.66 160.59 131.66C162.03 131.66 163.09 131.02 163.09 129.37L163.09 127.17L162.95 127.17C162.51 128.16 161.44 129.13 159.53 129.13C156.82 129.13 154.66 127.27 154.66 123.28C154.66 119.19 156.89 117.14 159.52 117.14C161.53 117.14 162.5 118.34 162.95 119.31L163.07 119.31L163.07 117.3L166.38 117.3L166.38 129.42ZM180.82 125.86C180.35 128.09 178.35 129.53 175.38 129.53C171.68 129.53 169.43 127.15 169.43 123.35C169.43 119.65 171.72 117.14 175.25 117.14C178.42 117.14 180.89 119.16 180.89 123.23L180.89 124.15L172.72 124.15L172.72 124.16C172.72 125.95 173.77 127.05 175.44 127.05C176.55 127.05 177.4 126.57 177.74 125.66L180.82 125.86ZM202.58 119.91C201.23 119.91 200.31 120.81 200.3 122.36L200.3 129.3L196.97 129.3L196.97 117.3L200.15 117.3L200.15 119.42L200.29 119.42C200.82 118.02 202.11 117.14 203.9 117.14C206.39 117.14 208.04 118.86 208.04 121.65L208.04 129.3L204.71 129.3L204.71 122.25C204.72 120.78 203.91 119.91 202.58 119.91ZM235.8 123.35C235.8 127.04 233.53 129.53 229.89 129.53C226.25 129.53 223.98 127.04 223.98 123.35C223.98 119.62 226.25 117.14 229.89 117.14C233.53 117.14 235.8 119.62 235.8 123.35ZM256.5 124.9C256.34 127.66 254.33 129.53 251.14 129.53C247.44 129.53 245.23 126.99 245.23 123.35C245.23 119.67 247.48 117.14 251.12 117.14C254.25 117.14 256.35 118.96 256.5 121.74L253.36 121.74C253.17 120.54 252.39 119.74 251.18 119.74C249.63 119.74 248.61 121.03 248.61 123.3C248.61 125.6 249.62 126.9 251.18 126.9C252.31 126.9 253.16 126.18 253.36 124.9L256.5 124.9ZM271.98 119.91C270.64 119.91 269.71 120.81 269.71 122.36L269.71 129.3L266.38 129.3L266.38 117.3L269.55 117.3L269.55 119.42L269.69 119.42C270.23 118.02 271.52 117.14 273.3 117.14C275.8 117.14 277.44 118.86 277.44 121.65L277.44 129.3L274.11 129.3L274.11 122.25C274.12 120.78 273.32 119.91 271.98 119.91ZM292.21 129.42C292.21 132.48 289.77 134.05 286.35 134.05C283.11 134.05 281.26 132.6 280.86 130.71L283.94 130.29C284.21 131.02 284.96 131.66 286.42 131.66C287.87 131.66 288.93 131.02 288.93 129.37L288.93 127.17L288.79 127.17C288.35 128.16 287.28 129.13 285.36 129.13C282.66 129.13 280.49 127.27 280.49 123.28C280.49 119.19 282.72 117.14 285.35 117.14C287.36 117.14 288.34 118.34 288.79 119.31L288.91 119.31L288.91 117.3L292.21 117.3L292.21 129.42ZM218.76 117.3L222.28 117.3L218.09 129.3L214.34 129.3L210.15 117.3L213.66 117.3L216.15 125.88L216.28 125.88L218.76 117.3ZM242.18 129.3L238.85 129.3L238.85 117.3L242.18 117.3L242.18 129.3ZM262.84 129.3L259.51 129.3L259.51 117.3L262.84 117.3L262.84 129.3ZM175.3 119.62C173.83 119.62 172.79 120.72 172.72 122.08L177.76 122.08C177.75 120.66 176.75 119.62 175.3 119.62ZM227.37 123.32C227.37 125.41 228.23 126.96 229.91 126.96C231.56 126.96 232.42 125.41 232.42 123.32C232.42 121.23 231.56 119.68 229.91 119.68C228.23 119.68 227.37 121.23 227.37 123.32ZM158.06 123.26C158.06 125.33 158.95 126.63 160.58 126.63C162.18 126.63 163.11 125.38 163.11 123.26C163.11 121.16 162.2 119.79 160.58 119.79C158.93 119.79 158.06 121.22 158.06 123.26ZM283.89 123.26C283.89 125.33 284.78 126.63 286.42 126.63C288.02 126.63 288.94 125.38 288.94 123.26C288.94 121.16 288.03 119.79 286.42 119.79C284.77 119.79 283.89 121.22 283.89 123.26ZM115.87 125.84C115.87 126.75 116.6 127.23 117.63 127.23C119.09 127.23 120.13 126.27 120.13 125.01L120.13 123.73C119.73 124 118.54 124.17 117.82 124.28C116.65 124.44 115.87 124.9 115.87 125.84ZM144.08 125.84C144.08 126.75 144.81 127.23 145.83 127.23C147.3 127.23 148.33 126.27 148.33 125.01L148.33 123.73C147.93 124 146.75 124.17 146.02 124.28C144.85 124.44 144.08 124.9 144.08 125.84Z" fill="#5C5E6E" fill-opacity="1.000000" fill-rule="evenodd"/>
	<g opacity="0.700000">
		<path id="Now track all of your transaction easily." d="M224.47 150.57L226.42 150.57L226.42 151.71L224.47 151.71L224.47 159.3L223.12 159.3L223.12 151.71L221.72 151.71L221.72 150.57L223.12 150.57L223.12 149.36C223.12 147.86 224.33 147.11 225.58 147.11C226.24 147.11 226.65 147.25 226.85 147.34L226.47 148.5C226.33 148.46 226.1 148.36 225.72 148.36C224.83 148.36 224.47 148.82 224.47 149.68L224.47 150.57ZM352.62 148.21C352.62 148.71 352.19 149.11 351.67 149.11C351.15 149.11 350.71 148.71 350.71 148.21C350.71 147.71 351.15 147.3 351.67 147.3C352.19 147.3 352.62 147.71 352.62 148.21ZM414.93 148.21C414.93 148.71 414.5 149.11 413.98 149.11C413.46 149.11 413.02 148.71 413.02 148.21C413.02 147.71 413.46 147.3 413.98 147.3C414.5 147.3 414.93 147.71 414.93 148.21ZM100.17 147.66L101.56 147.66L101.56 159.3L100.19 159.3L93.85 150.16L93.74 150.16L93.74 159.3L92.33 159.3L92.33 147.66L93.69 147.66L100.06 156.82L100.17 156.82L100.17 147.66ZM171.61 159.3L170.27 159.3L170.27 147.66L171.61 147.66L171.61 154.46L171.77 154.46L175.59 150.57L177.25 150.57L173.56 154.3L177.52 159.3L175.82 159.3L172.55 155.16L171.61 156.03L171.61 159.3ZM196.1 147.66L197.44 147.66L197.44 159.3L196.1 159.3L196.1 147.66ZM201.09 147.66L202.43 147.66L202.43 159.3L201.09 159.3L201.09 147.66ZM418.29 147.66L419.63 147.66L419.63 159.3L418.29 159.3L418.29 147.66ZM137.67 150.57L139.54 150.57L139.54 151.71L137.67 151.71L137.67 156.8C137.67 157.93 138.24 158.11 138.83 158.11C139.13 158.11 139.31 158.07 139.42 158.05L139.7 159.25C139.52 159.32 139.2 159.41 138.7 159.41C137.56 159.41 136.33 158.68 136.33 157.16L136.33 151.71L135.02 151.71L135.02 150.57L136.33 150.57L136.33 148.48L137.67 148.48L137.67 150.57ZM281.03 150.57L282.89 150.57L282.89 151.71L281.03 151.71L281.03 156.8C281.03 157.93 281.59 158.11 282.18 158.11C282.48 158.11 282.66 158.07 282.78 158.05L283.05 159.25C282.87 159.32 282.55 159.41 282.05 159.41C280.91 159.41 279.68 158.68 279.68 157.16L279.68 151.71L278.37 151.71L278.37 150.57L279.68 150.57L279.68 148.48L281.03 148.48L281.03 150.57ZM345.9 150.57L347.77 150.57L347.77 151.71L345.9 151.71L345.9 156.8C345.9 157.93 346.47 158.11 347.06 158.11C347.36 158.11 347.54 158.07 347.65 158.05L347.93 159.25C347.74 159.32 347.43 159.41 346.93 159.41C345.79 159.41 344.56 158.68 344.56 157.16L344.56 151.71L343.24 151.71L343.24 150.57L344.56 150.57L344.56 148.48L345.9 148.48L345.9 150.57ZM144.1 159.3L142.76 159.3L142.76 150.57L144.06 150.57L144.06 151.89L144.15 151.89C144.47 151.02 145.37 150.43 146.42 150.43C146.62 150.43 146.97 150.45 147.12 150.46L147.12 151.82C147.03 151.8 146.66 151.73 146.31 151.73C145.03 151.73 144.1 152.59 144.1 153.77L144.1 159.3ZM267.58 159.3L266.24 159.3L266.24 150.57L267.53 150.57L267.53 151.89L267.62 151.89C267.94 151.02 268.85 150.43 269.9 150.43C270.1 150.43 270.45 150.45 270.6 150.46L270.6 151.82C270.51 151.8 270.14 151.73 269.78 151.73C268.51 151.73 267.58 152.59 267.58 153.77L267.58 159.3ZM287.45 159.3L286.11 159.3L286.11 150.57L287.41 150.57L287.41 151.89L287.5 151.89C287.82 151.02 288.72 150.43 289.77 150.43C289.97 150.43 290.32 150.45 290.47 150.46L290.47 151.82C290.38 151.8 290.01 151.73 289.66 151.73C288.38 151.73 287.45 152.59 287.45 153.77L287.45 159.3ZM112.89 154.98C112.89 157.68 111.3 159.48 108.94 159.48C106.58 159.48 104.98 157.68 104.98 154.98C104.98 152.25 106.58 150.46 108.94 150.46C111.3 150.46 112.89 152.25 112.89 154.98ZM155.07 158.11C154.8 158.68 154 159.5 152.48 159.5C150.82 159.5 149.5 158.52 149.5 156.82C149.5 154.82 151.27 154.46 152.89 154.25C154.48 154.05 155.14 154.11 155.14 153.46L155.14 153.41C155.14 152.29 154.53 151.64 153.3 151.64C152.02 151.64 151.32 152.32 151.03 152.96L149.75 152.5C150.44 150.91 151.94 150.46 153.25 150.46C154.37 150.46 156.48 150.77 156.48 153.55L156.48 159.3L155.14 159.3L155.14 158.11L155.07 158.11ZM167.11 156.75C166.89 158.3 165.61 159.48 163.68 159.48C161.23 159.48 159.73 157.59 159.73 154.98C159.73 152.32 161.3 150.46 163.66 150.46C165.5 150.46 166.89 151.55 167.11 153.18L165.77 153.18C165.57 152.39 164.86 151.66 163.68 151.66C162.11 151.66 161.07 152.96 161.07 154.93C161.07 156.96 162.09 158.27 163.68 158.27C164.73 158.27 165.52 157.71 165.77 156.75L167.11 156.75ZM191.03 158.11C190.76 158.68 189.96 159.5 188.44 159.5C186.78 159.5 185.46 158.52 185.46 156.82C185.46 154.82 187.23 154.46 188.85 154.25C190.44 154.05 191.1 154.11 191.1 153.46L191.1 153.41C191.1 152.29 190.49 151.64 189.26 151.64C187.98 151.64 187.28 152.32 186.99 152.96L185.71 152.5C186.4 150.91 187.9 150.46 189.21 150.46C190.33 150.46 192.44 150.77 192.44 153.55L192.44 159.3L191.1 159.3L191.1 158.11L191.03 158.11ZM219.29 154.98C219.29 157.68 217.7 159.48 215.33 159.48C212.97 159.48 211.38 157.68 211.38 154.98C211.38 152.25 212.97 150.46 215.33 150.46C217.7 150.46 219.29 152.25 219.29 154.98ZM252.5 154.98C252.5 157.68 250.91 159.48 248.54 159.48C246.18 159.48 244.59 157.68 244.59 154.98C244.59 152.25 246.18 150.46 248.54 150.46C250.91 150.46 252.5 152.25 252.5 154.98ZM298.42 158.11C298.15 158.68 297.35 159.5 295.83 159.5C294.17 159.5 292.85 158.52 292.85 156.82C292.85 154.82 294.62 154.46 296.24 154.25C297.83 154.05 298.49 154.11 298.49 153.46L298.49 153.41C298.49 152.29 297.89 151.64 296.65 151.64C295.37 151.64 294.67 152.32 294.38 152.96L293.1 152.5C293.79 150.91 295.29 150.46 296.6 150.46C297.72 150.46 299.83 150.77 299.83 153.55L299.83 159.3L298.49 159.3L298.49 158.11L298.42 158.11ZM307.06 151.66C305.77 151.66 304.83 152.52 304.83 154.05L304.83 159.3L303.49 159.3L303.49 150.57L304.78 150.57L304.78 151.93L304.9 151.93C305.31 151.05 306.12 150.46 307.44 150.46C309.21 150.46 310.4 151.52 310.4 153.75L310.4 159.3L309.06 159.3L309.06 153.84C309.06 152.47 308.3 151.66 307.06 151.66ZM317.14 150.46C318.87 150.46 319.81 151.29 320.23 152.52L319.03 152.86C318.8 152.26 318.31 151.61 317.14 151.61C316.07 151.61 315.28 152.16 315.28 152.91C315.28 153.58 315.75 153.93 316.78 154.18L318.07 154.5C319.63 154.88 320.39 155.65 320.39 156.86C320.39 158.37 319.01 159.48 316.98 159.48C315.2 159.48 313.98 158.69 313.66 157.21L314.94 156.89C315.18 157.83 315.86 158.3 316.96 158.3C318.21 158.3 319.01 157.68 319.01 156.93C319.01 156.33 318.59 155.91 317.71 155.71L316.26 155.36C314.65 154.99 313.94 154.18 313.94 152.98C313.94 151.5 315.3 150.46 317.14 150.46ZM328.77 158.11C328.5 158.68 327.7 159.5 326.18 159.5C324.52 159.5 323.2 158.52 323.2 156.82C323.2 154.82 324.97 154.46 326.59 154.25C328.18 154.05 328.84 154.11 328.84 153.46L328.84 153.41C328.84 152.29 328.24 151.64 327 151.64C325.72 151.64 325.02 152.32 324.73 152.96L323.45 152.5C324.14 150.91 325.64 150.46 326.95 150.46C328.07 150.46 330.18 150.77 330.18 153.55L330.18 159.3L328.84 159.3L328.84 158.11L328.77 158.11ZM340.81 156.75C340.59 158.3 339.31 159.48 337.38 159.48C334.93 159.48 333.43 157.59 333.43 154.98C333.43 152.32 335 150.46 337.36 150.46C339.2 150.46 340.59 151.55 340.81 153.18L339.47 153.18C339.27 152.39 338.56 151.66 337.38 151.66C335.81 151.66 334.77 152.96 334.77 154.93C334.77 156.96 335.79 158.27 337.38 158.27C338.43 158.27 339.22 157.71 339.47 156.75L340.81 156.75ZM363.48 154.98C363.48 157.68 361.89 159.48 359.53 159.48C357.17 159.48 355.57 157.68 355.57 154.98C355.57 152.25 357.17 150.46 359.53 150.46C361.89 150.46 363.48 152.25 363.48 154.98ZM370.3 151.66C369.01 151.66 368.07 152.52 368.07 154.05L368.07 159.3L366.73 159.3L366.73 150.57L368.02 150.57L368.02 151.93L368.14 151.93C368.55 151.05 369.36 150.46 370.69 150.46C372.45 150.46 373.64 151.52 373.64 153.75L373.64 159.3L372.3 159.3L372.3 153.84C372.3 152.47 371.54 151.66 370.3 151.66ZM390.13 157.27C389.72 158.59 388.43 159.48 386.65 159.48C384.13 159.48 382.58 157.68 382.58 155C382.58 152.32 384.15 150.46 386.52 150.46C388.33 150.46 390.27 151.57 390.27 154.82L390.27 155.39L383.93 155.39C383.99 157.26 385.08 158.27 386.65 158.27C387.7 158.27 388.49 157.82 388.83 156.91L390.13 157.27ZM398.67 158.11C398.4 158.68 397.6 159.5 396.08 159.5C394.42 159.5 393.1 158.52 393.1 156.82C393.1 154.82 394.87 154.46 396.49 154.25C398.08 154.05 398.74 154.11 398.74 153.46L398.74 153.41C398.74 152.29 398.13 151.64 396.9 151.64C395.62 151.64 394.92 152.32 394.62 152.96L393.35 152.5C394.03 150.91 395.53 150.46 396.85 150.46C397.97 150.46 400.08 150.77 400.08 153.55L400.08 159.3L398.74 159.3L398.74 158.11L398.67 158.11ZM406.82 150.46C408.55 150.46 409.49 151.29 409.92 152.52L408.71 152.86C408.48 152.26 407.99 151.61 406.82 151.61C405.76 151.61 404.96 152.16 404.96 152.91C404.96 153.58 405.43 153.93 406.46 154.18L407.76 154.5C409.31 154.88 410.07 155.65 410.07 156.86C410.07 158.37 408.69 159.48 406.67 159.48C404.88 159.48 403.66 158.69 403.35 157.21L404.62 156.89C404.86 157.83 405.55 158.3 406.64 158.3C407.89 158.3 408.69 157.68 408.69 156.93C408.69 156.33 408.27 155.91 407.39 155.71L405.94 155.36C404.33 154.99 403.62 154.18 403.62 152.98C403.62 151.5 404.98 150.46 406.82 150.46ZM119.14 159.3L117.82 159.3L115.16 150.57L116.57 150.57L118.45 157.25L118.55 157.25L120.41 150.57L121.84 150.57L123.68 157.23L123.78 157.23L125.66 150.57L127.07 150.57L124.41 159.3L123.09 159.3L121.18 152.59L121.05 152.59L119.14 159.3ZM238.64 160.57C238.13 161.93 237.28 162.57 236.07 162.57C235.62 162.57 235.23 162.48 235.09 162.41L235.43 161.23C236.41 161.48 237.01 161.36 237.5 160.02L237.75 159.34L234.53 150.57L235.98 150.57L238.39 157.52L238.48 157.52L240.89 150.57L242.34 150.57L238.64 160.57ZM258.99 158.11C259.99 158.11 261.24 157.36 261.24 155.73L261.24 150.57L262.58 150.57L262.58 159.3L261.24 159.3L261.24 157.82L261.15 157.82C260.74 158.71 259.88 159.41 258.56 159.41C256.93 159.41 255.74 158.34 255.74 156.11L255.74 150.57L257.08 150.57L257.08 156.02C257.08 157.3 257.88 158.11 258.99 158.11ZM352.33 159.3L350.99 159.3L350.99 150.57L352.33 150.57L352.33 159.3ZM414.64 159.3L413.3 159.3L413.3 150.57L414.64 150.57L414.64 159.3ZM426.72 160.57C426.21 161.93 425.36 162.57 424.15 162.57C423.7 162.57 423.31 162.48 423.17 162.41L423.51 161.23C424.49 161.48 425.1 161.36 425.58 160.02L425.83 159.34L422.61 150.57L424.06 150.57L426.47 157.52L426.56 157.52L428.97 150.57L430.42 150.57L426.72 160.57ZM106.33 154.98C106.33 156.73 107.14 158.27 108.94 158.27C110.73 158.27 111.55 156.73 111.55 154.98C111.55 153.23 110.73 151.66 108.94 151.66C107.14 151.66 106.33 153.23 106.33 154.98ZM212.72 154.98C212.72 156.73 213.54 158.27 215.33 158.27C217.13 158.27 217.95 156.73 217.95 154.98C217.95 153.23 217.13 151.66 215.33 151.66C213.54 151.66 212.72 153.23 212.72 154.98ZM245.93 154.98C245.93 156.73 246.75 158.27 248.54 158.27C250.34 158.27 251.16 156.73 251.16 154.98C251.16 153.23 250.34 151.66 248.54 151.66C246.75 151.66 245.93 153.23 245.93 154.98ZM356.92 154.98C356.92 156.73 357.73 158.27 359.53 158.27C361.32 158.27 362.14 156.73 362.14 154.98C362.14 153.23 361.32 151.66 359.53 151.66C357.73 151.66 356.92 153.23 356.92 154.98ZM386.52 151.66C384.98 151.66 384.02 152.87 383.93 154.23L388.9 154.23C388.9 152.75 387.97 151.66 386.52 151.66ZM150.85 156.89C150.85 157.82 151.62 158.3 152.69 158.3C154.28 158.3 155.14 157.23 155.14 156.14L155.14 154.91C154.91 155.18 153.39 155.34 152.82 155.41C151.78 155.55 150.85 155.86 150.85 156.89ZM186.81 156.89C186.81 157.82 187.58 158.3 188.65 158.3C190.24 158.3 191.1 157.23 191.1 156.14L191.1 154.91C190.87 155.18 189.35 155.34 188.78 155.41C187.74 155.55 186.81 155.86 186.81 156.89ZM294.2 156.89C294.2 157.82 294.97 158.3 296.04 158.3C297.63 158.3 298.49 157.23 298.49 156.14L298.49 154.91C298.26 155.18 296.74 155.34 296.17 155.41C295.13 155.55 294.2 155.86 294.2 156.89ZM324.55 156.89C324.55 157.82 325.32 158.3 326.39 158.3C327.98 158.3 328.84 157.23 328.84 156.14L328.84 154.91C328.61 155.18 327.09 155.34 326.52 155.41C325.48 155.55 324.55 155.86 324.55 156.89ZM394.44 156.89C394.44 157.82 395.22 158.3 396.28 158.3C397.87 158.3 398.74 157.23 398.74 156.14L398.74 154.91C398.51 155.18 396.99 155.34 396.42 155.41C395.37 155.55 394.44 155.86 394.44 156.89ZM434.85 158.36C434.85 158.93 434.39 159.39 433.83 159.39C433.26 159.39 432.81 158.93 432.81 158.36C432.81 157.8 433.26 157.34 433.83 157.34C434.39 157.34 434.85 157.8 434.85 158.36Z" fill="#756F6F" fill-opacity="1.000000" fill-rule="evenodd"/>
	</g>
</svg>
